<svg width="256px" height="256px" viewBox="-6.16 -6.16 34.32 34.32"
    id="meteor-icon-kit__regular-bold" fill="none" xmlns="http://www.w3.org/2000/svg"
    stroke="#ffffff" stroke-width="2.2" transform="rotate(0)matrix(-1, 0, 0, 1, 0, 0)">
    <g id="SVGRepo_bgCarrier" stroke-width="0">
        <rect x="-6.16" y="-6.16" width="34.32" height="34.32" rx="6.864" fill="#1c7b9b"
            strokewidth="0"></rect>
    </g>
    <g id="SVGRepo_tracerCarrier" stroke-linecap="round" stroke-linejoin="round" stroke="#CCCCCC"
        stroke-width="1.364"></g>
    <g id="SVGRepo_iconCarrier">
        <path fill-rule="evenodd" clip-rule="evenodd"
            d="M1 2C0.44772 2 0 1.55228 0 1C0 0.44772 0.44772 0 1 0H8C11.3137 0 14 2.68629 14 6C14 7.72715 13.2702 9.2839 12.1022 10.3786C14.3791 11.2304 16 13.4259 16 16C16 19.3137 13.3137 22 10 22H1C0.44772 22 0 21.5523 0 21C0 20.4477 0.44772 20 1 20V2zM3 2V10H8C10.2091 10 12 8.20914 12 6C12 3.79086 10.2091 2 8 2H3zM3 12V20H10C12.2091 20 14 18.2091 14 16C14 13.7909 12.2091 12 10 12H3z"
            fill="#ffffff"></path>
    </g>
</svg>