<?xml version="1.0" encoding="UTF-8"?>
<svg version="1.1" viewBox="0 0 1600 1200" xmlns="http://www.w3.org/2000/svg">
<rect width="1600" height="1200" fill="#0000"/>
<g stroke="#000" stroke-width="4">
<path d="m650.82 260.29 427.49 1.79c17.07 0 15.76 3.31 15.76 20.38l16.18 31.66v300.48c0 17.07-13.84 30.91-30.91 30.91h-429.96c-17.07 0-30.91-13.84-30.91-30.91v-300.48l14.8-28.5c0-17.07 0.48-25.33 17.55-25.33z" fill="#ffff9e"/>
<path d="m649.38 250.79h429.96c17.07 0 30.91 13.84 30.91 30.91v32.42h-491.78v-32.42c0-17.07 13.84-30.91 30.91-30.91z" fill="#fff"/>
<path d="m1064.8 296.29c7.46 0 13.5-6.04 13.5-13.49s-6.04-13.49-13.5-13.49c-7.44 0-13.49 6.04-13.49 13.49s6.05 13.49 13.49 13.49z" fill="none" stroke-linecap="round" stroke-linejoin="round"/>
<path d="m1050.4 297.19 4.88-4.89" fill="none" stroke-linecap="round" stroke-linejoin="round"/>
</g>
<g stroke="#000" stroke-width="4">
<path d="m375.53 179.99h319.96c18.83 0 34.13 15.29 34.13 34.13v267.95h-388.22v-267.95c0-18.84 15.29-34.13 34.13-34.13z" fill="#633b45"/>
<path d="m383.94 227.79c5.54 0 10.04-4.5 10.04-10.04 0-5.55-4.5-10.04-10.04-10.04-5.55 0-10.04 4.49-10.04 10.04 0 5.54 4.49 10.04 10.04 10.04z" fill="#7b7b7b"/>
<path d="m418.35 227.79c5.55 0 10.04-4.5 10.04-10.04 0-5.55-4.49-10.04-10.04-10.04-5.54 0-10.03 4.49-10.03 10.04 0 5.54 4.49 10.04 10.03 10.04z" fill="#7b7b7b"/>
<path d="m452.77 227.79c5.54 0 10.04-4.5 10.04-10.04 0-5.55-4.5-10.04-10.04-10.04-5.55 0-10.04 4.49-10.04 10.04 0 5.54 4.49 10.04 10.04 10.04z" fill="#7b7b7b"/>
<path d="m340.44 254.55h389.08" fill="none" stroke-linecap="round" stroke-linejoin="round"/>
</g>
<g stroke="#000" stroke-width="4">
<path d="m443.7 304.36h77.8c4.94 0 8.97 4.03 8.97 8.97 0 4.95-4.03 8.98-8.97 8.98h-77.8c-4.95 0-8.98-4.03-8.98-8.98 0-4.94 4.03-8.97 8.98-8.97z" fill="#ded8d9"/>
<path d="m443.7 341.46h45.48c4.95 0 8.98 4.03 8.98 8.98 0 4.94-4.03 8.97-8.98 8.97h-45.48c-4.95 0-8.98-4.03-8.98-8.97 0-4.95 4.03-8.98 8.98-8.98z" fill="#f1f1f1"/>
<path d="m519.1 341.46h14.37c4.94 0 8.97 4.03 8.97 8.98 0 4.94-4.03 8.97-8.97 8.97h-14.37c-4.94 0-8.97-4.03-8.97-8.97 0-4.95 4.03-8.98 8.97-8.98z" fill="#ff3094"/>
<path d="m443.7 378.56h11.17c4.95 0 8.98 4.03 8.98 8.98s-4.03 8.98-8.98 8.98h-11.17c-4.95 0-8.98-4.03-8.98-8.98s4.03-8.98 8.98-8.98z" fill="#f1f1f1"/>
<path d="m484.79 378.56h67.03c4.95 0 8.98 4.03 8.98 8.98s-4.03 8.98-8.98 8.98h-67.03c-4.94 0-8.97-4.03-8.97-8.98s4.03-8.98 8.97-8.98z" fill="#ff3094"/>
<path d="m581.74 378.56h57.45c4.95 0 8.98 4.03 8.98 8.98s-4.03 8.98-8.98 8.98h-57.45c-4.95 0-8.98-4.03-8.98-8.98s4.03-8.98 8.98-8.98z" fill="#fff"/>
<path d="m443.7 415.67h35.91c4.94 0 8.97 4.03 8.97 8.97 0 4.95-4.03 8.98-8.97 8.98h-35.91c-4.95 0-8.98-4.03-8.98-8.98 0-4.94 4.03-8.97 8.98-8.97z" fill="#585657"/>
<path d="m509.53 415.67h7.98c4.95 0 8.97 4.03 8.97 8.97 0 4.95-4.02 8.98-8.97 8.98h-7.98c-4.95 0-8.98-4.03-8.98-8.98 0-4.94 4.03-8.97 8.98-8.97z" fill="#f1f1f1"/>
<path d="m547.43 415.67h47.48c4.94 0 8.97 4.03 8.97 8.97 0 4.95-4.03 8.98-8.97 8.98h-47.48c-4.95 0-8.98-4.03-8.98-8.98 0-4.94 4.03-8.97 8.98-8.97z" fill="#ded8d9"/>
</g>
<g stroke="#000" stroke-width="4">
<path d="m1079.2 399.16h301.07c2.85 0 5.66 0.56 8.29 1.65 2.62 1.09 5.01 2.68 7.02 4.69s3.6 4.4 4.69 7.02c1.09 2.63 1.65 5.44 1.65 8.29v233.11c0 2.84-0.56 5.65-1.65 8.28s-2.68 5.01-4.69 7.02-4.4 3.6-7.02 4.69c-2.63 1.09-5.44 1.65-8.29 1.65h-301.07c-2.84 0-5.66-0.56-8.28-1.65-2.63-1.09-5.02-2.68-7.03-4.69s-3.6-4.39-4.69-7.02c-1.08-2.63-1.64-5.44-1.64-8.28v-233.11c0-2.85 0.56-5.66 1.64-8.29 1.09-2.62 2.68-5.01 4.69-7.02s4.4-3.6 7.03-4.69c2.62-1.09 5.44-1.65 8.28-1.65z" fill="#494949"/>
<path d="m1106.4 484h94c2.87 0 5.63 1.15 7.66 3.18 2.03 2.04 3.18 4.79 3.18 7.67 0 2.87-1.15 5.63-3.18 7.66s-4.79 3.18-7.66 3.18h-94c-2.87 0-5.63-1.15-7.66-3.18-2.04-2.03-3.18-4.79-3.18-7.66 0-2.88 1.14-5.63 3.18-7.67 2.03-2.03 4.79-3.18 7.66-3.18z" fill="#ded8d9"/>
<path d="m1106.4 528.83h54.95c2.88 0 5.63 1.15 7.67 3.18 2.03 2.03 3.17 4.79 3.18 7.67-0.01 2.87-1.15 5.63-3.18 7.66-2.04 2.03-4.79 3.18-7.67 3.18h-54.95c-2.87 0-5.63-1.15-7.66-3.18-2.04-2.03-3.18-4.79-3.18-7.66 0-2.88 1.14-5.64 3.18-7.67 2.03-2.03 4.79-3.18 7.66-3.18z" fill="#ffff9e"/>
<path d="m1197.6 528.83h17.35c2.87 0 5.63 1.15 7.66 3.18 2.04 2.03 3.18 4.79 3.18 7.67 0 2.87-1.14 5.63-3.18 7.66-2.03 2.03-4.79 3.18-7.66 3.18h-17.35c-2.88 0-5.64-1.15-7.67-3.18s-3.18-4.79-3.18-7.66c0-2.88 1.15-5.64 3.18-7.67s4.79-3.18 7.67-3.18z" fill="#633b45"/>
<path d="m1106.4 573.66h13.5c2.87 0 5.63 1.15 7.66 3.18 2.04 2.03 3.18 4.79 3.18 7.66 0 2.88-1.14 5.64-3.18 7.67-2.03 2.03-4.79 3.18-7.66 3.18h-13.5c-2.87 0-5.63-1.15-7.66-3.18-2.04-2.03-3.18-4.79-3.18-7.67 0-2.87 1.14-5.63 3.18-7.66 2.03-2.03 4.79-3.18 7.66-3.18z" fill="#ffff9e"/>
<path d="m1156.1 573.66h80.98c2.88 0 5.63 1.15 7.67 3.18 2.03 2.03 3.17 4.79 3.18 7.66-0.01 2.88-1.15 5.64-3.18 7.67-2.04 2.03-4.79 3.18-7.67 3.18h-80.98c-2.87 0-5.63-1.15-7.66-3.18-2.04-2.03-3.18-4.79-3.19-7.67 0.01-2.87 1.15-5.63 3.19-7.66 2.03-2.03 4.79-3.18 7.66-3.18z" fill="#633b45"/>
<path d="m1273.2 573.66h69.42c2.87 0 5.63 1.15 7.66 3.18s3.18 4.79 3.18 7.66c0 2.88-1.15 5.64-3.18 7.67s-4.79 3.18-7.66 3.18h-69.42c-2.87 0-5.63-1.15-7.66-3.18s-3.18-4.79-3.18-7.67c0-2.87 1.15-5.63 3.18-7.66s4.79-3.18 7.66-3.18z" fill="#fff"/>
<path d="m1106.4 618.49h43.38c2.88 0 5.64 1.15 7.67 3.18s3.18 4.79 3.18 7.66c0 2.88-1.15 5.63-3.18 7.67-2.03 2.03-4.79 3.17-7.67 3.18h-43.38c-2.87-0.01-5.63-1.15-7.66-3.18-2.04-2.04-3.18-4.79-3.18-7.67 0-2.87 1.14-5.63 3.18-7.66 2.03-2.03 4.79-3.18 7.66-3.18z" fill="#fff"/>
<path d="m1186 618.49h9.64c2.87 0 5.63 1.15 7.66 3.18s3.18 4.79 3.18 7.66c0 2.88-1.15 5.63-3.18 7.67-2.03 2.03-4.79 3.17-7.66 3.18h-9.64c-2.88-0.01-5.63-1.15-7.67-3.18-2.03-2.04-3.17-4.79-3.18-7.67 0.01-2.87 1.15-5.63 3.18-7.66 2.04-2.03 4.79-3.18 7.67-3.18z" fill="#ffff9e"/>
<path d="m1231.8 618.49h57.36c2.88 0 5.63 1.15 7.67 3.18 2.03 2.03 3.17 4.79 3.18 7.66-0.01 2.88-1.15 5.63-3.18 7.67-2.04 2.03-4.79 3.17-7.67 3.18h-57.36c-2.88-0.01-5.63-1.15-7.66-3.18-2.04-2.04-3.18-4.79-3.19-7.67 0.01-2.87 1.15-5.63 3.19-7.66 2.03-2.03 4.78-3.18 7.66-3.18z" fill="#ded8d9"/>
<path d="m1079.2 399.16h301.07c2.85 0 5.66 0.56 8.29 1.65 2.62 1.09 5.01 2.68 7.02 4.69s3.6 4.4 4.69 7.02c1.09 2.63 1.65 5.44 1.65 8.29v22.7h-344.36v-22.7c0-2.85 0.56-5.66 1.64-8.29 1.09-2.62 2.68-5.01 4.69-7.02s4.4-3.6 7.03-4.69c2.62-1.09 5.44-1.65 8.28-1.65z" fill="#ded8d9"/>
<path d="m1370.1 431.03c5.22 0 9.45-4.23 9.45-9.45s-4.23-9.45-9.45-9.45c-5.21 0-9.44 4.23-9.44 9.45s4.23 9.45 9.44 9.45z" fill="none" stroke-linecap="round" stroke-linejoin="round"/>
<path d="m1360 431.65 3.42-3.42" fill="none" stroke-linecap="round" stroke-linejoin="round"/>
</g>
<path d="m461.45 588.16-56.23 32.8 62.62-7.24-0.24 55.62 25.74-52.34 42.54 47.17-23.25-58.79 44.06-4.08-43.63-17.4 32.37-47.83-49.29 32.55-16.37-47.95-3.78 50.27-51.24-24.59 36.7 41.81z" fill="#ff3094" stroke="#000" stroke-width="4"/>
<path d="m1132.2 239.15-4.18 43.94 25.36-40.41 27.73 33.34-7.16-42.68 44.25 3.05-40.21-23.05 29.76-34.42-43.72 15.78-7.66-40.35-17.59 39.06-28.44-23.16 14.2 32.82-41.04-1.72 35.73 19.52-34.63 38.61 47.6-20.33z" fill="#ded8d9" stroke="#000" stroke-width="4"/>
<path d="m1202 742 14.09-24.73-0.36 26.36 25.12-12.31-19.09 19.97 22.99 3.09-22.28 7.1 17.03 23.8-27.03-14.22-1.7 32.67-10.97-31.4-29.37 15.9 18.34-28.31-28.49-6.18 31.15-4.64-10.43-29.06 21 21.96z" fill="#fff" stroke="#000" stroke-width="4"/>
<path d="m238.85 645.97c9.48 0 17.17-7.68 17.17-17.16s-7.69-17.16-17.17-17.16c-9.47 0-17.16 7.68-17.16 17.16s7.69 17.16 17.16 17.16z" fill="#fff" stroke="#000" stroke-width="4"/>
<path d="m598.38 740.44 42.04 16.54-30.84-31.01 30.44-23.72-39.58 8.38 7.47-43.47-22.11 37.96-21.14-22.29 9.25 31.31-40.03 2.87 38.94 12.86-19.13 29.58 29.01-19.58 8.61 38.53 7.07-37.96z" fill="#fff" stroke="#000" stroke-width="4"/>
<path d="m287.96 310.8 16.01 3.81-13.59 9.21 4.67 15.78-14.81-7.14-11.29 11.92-1.2-16.41-16.02-3.8 13.6-9.28-4.67-15.72 14.8 7.14 11.29-11.92 1.21 16.41z" fill="#ffff9e" stroke="#000" stroke-width="4"/>
<path d="m1340.1 817.58 14.22 3.37-12.07 8.19 4.14 14.01-13.14-6.34-10.03 10.59-1.07-14.58-14.23-3.38 12.08-8.23-4.15-13.97 13.15 6.35 10.03-10.59 1.07 14.58z" fill="#633b45" stroke="#000" stroke-width="4"/>
<g fill="none" stroke="#000" stroke-linecap="round" stroke-linejoin="round" stroke-width="4">
<path d="m298.95 818.6v50.51"/>
<path d="m324.21 843.85h-50.52"/>
</g>
<g fill="none" stroke="#000" stroke-linecap="round" stroke-linejoin="round" stroke-width="4">
<path d="m1333.1 241.55v39.82"/>
<path d="m1353 261.46h-39.82"/>
</g>
<path d="m595.11 197.2c11.61 0 21.01-9.4 21.01-21.01 0-11.6-9.4-21.01-21.01-21.01s-21.01 9.41-21.01 21.01c0 11.61 9.4 21.01 21.01 21.01z" fill="#ded8d9" stroke="#000" stroke-width="4"/>
<path d="m1117.6 938.66-46.06 34.4 17.49-53.97-53.91-6.77 49.09-26.63-26.2-52.68 53.69 29 20.8-44.04 14.25 51.38 54.84-19.79-39.87 47.79 48.22 32.75-57.86 0.21 0.79 55.71-35.27-47.36z" fill="none" stroke="#000" stroke-linecap="round" stroke-linejoin="round" stroke-width="4"/>
<g stroke="#000" stroke-width="4">
<path d="m141.23 725.03c25.96-14.71 54.6-37.64 76.14-14.71 12.98 13.84 13.84 45.86 50.18 38.07s83.93-54.51 124.59-48.45c44.82 6.66 36.34 92.57-0.86 112.47-40.24 21.55-47.59-62.29 67.48-68.35" fill="none" stroke-linecap="round" stroke-linejoin="round"/>
<path d="m484.72 718.98h27.68v50.18h-27.68c-13.85 0-25.09-11.24-25.09-25.09 0-13.84 11.24-25.09 25.09-25.09z" fill="#231f20"/>
<path d="m509.81 734.55h21.63" fill="none" stroke-linecap="round" stroke-linejoin="round"/>
<path d="m509.81 753.59h21.63" fill="none" stroke-linecap="round" stroke-linejoin="round"/>
<path d="m512.4 715.52v57.1" fill="none" stroke-linecap="round" stroke-linejoin="round"/>
</g>
<g fill="none" stroke="#000" stroke-linecap="round" stroke-linejoin="round" stroke-width="4">
<path d="m741.1 421.69v17.63"/>
<path d="M741.1 489.37V507"/>
<path d="m783.76 464.34h-17.63"/>
<path d="m716.08 464.34h-17.63"/>
<path d="m710.96 434.2 12.42 12.42"/>
<path d="m758.83 482.07 12.42 12.42"/>
<path d="m771.25 434.2-12.42 12.42"/>
<path d="m723.38 482.07-12.42 12.42"/>
</g>
<path d="m496.13 981.76 63.61-142.04c0.01-0.18 0.02-0.37-0.17-0.19l-150.47 39.9c-0.19-0.01-0.2 0.18-0.03 0.37l41.34 21.48c0.19 0.01 0.17 0.2-0.02 0.37l-36.56 31.44-0.01 0.18 30.21 35.55 0.18 0.02 36.73-31.25c0.19 0.02 0.19 0.02 0.37 0.03l14.46 43.94c-0.01 0.18 0.36 0.2 0.36 0.2z" fill="#ffff9e" stroke="#000" stroke-width="4"/>
<g stroke-width="4">
<path d="m130.6 519.11 116.22-90.88 152.85 198.29-269.07-107.41z" fill="#ded8d900" opacity="0" stroke="#ffffff00"/>
<path d="m130.6 497.62 116.22-90.87 152.85 198.29-269.07-107.42z" fill="#ded8d9" stroke="#000"/>
</g>
<path d="m1450 568.42-91.04-48.97 27.1 99.8 14.16-32.72 24.43 30.79 14.75-11.65-24.44-30.91 35.04-6.34z" fill="#ff3094" stroke="#000" stroke-width="4"/>
<g stroke-width="4">
<path d="m1221.6 410.65 19.71-21.57 66.91-15.98c7.81-1.86 14.57-6.75 18.78-13.59s5.54-15.08 3.68-22.89l-3.87-16.22c-0.92-3.87-2.6-7.53-4.93-10.75-2.34-3.22-5.29-5.96-8.68-8.04-3.4-2.08-7.17-3.47-11.1-4.09s-7.95-0.46-11.82 0.48l-67.75 16.18c-7.81 1.86-14.57 6.75-18.78 13.59-4.22 6.84-5.54 15.08-3.68 22.9l13.86 58.04c0.13 0.57 0.38 1.11 0.72 1.59 0.34 0.47 0.78 0.87 1.28 1.18 0.5 0.3 1.06 0.5 1.64 0.59 0.58 0.08 1.17 0.05 1.74-0.1 0.89-0.18 1.69-0.65 2.29-1.32z" fill="#633b4500" opacity="0" stroke="#ffffff00"/>
<path d="m1208.6 402.66 19.7-21.57 66.92-15.98c7.81-1.86 14.57-6.75 18.78-13.59s5.53-15.08 3.68-22.89l-3.87-16.22c-0.92-3.87-2.6-7.53-4.93-10.75-2.34-3.22-5.29-5.95-8.68-8.04-3.4-2.08-7.17-3.47-11.1-4.09s-7.95-0.46-11.82 0.48l-67.75 16.18c-7.82 1.86-14.57 6.75-18.79 13.59-4.21 6.84-5.53 15.08-3.67 22.9l13.86 58.04c0.13 0.57 0.37 1.11 0.72 1.59 0.34 0.47 0.78 0.87 1.28 1.18 0.5 0.3 1.06 0.5 1.64 0.59 0.58 0.08 1.17 0.05 1.74-0.1 0.89-0.18 1.69-0.65 2.29-1.32z" fill="#633b45" stroke="#000"/>
<path d="m1265.9 318.68 21.77 8.67-15.5 17.57" fill="none" stroke="#000" stroke-linecap="round" stroke-linejoin="round"/>
<path d="m1238.9 352.87-21.82-8.66 15.55-17.58" fill="none" stroke="#000" stroke-linecap="round" stroke-linejoin="round"/>
<path d="m1253.4 321.01-1.99 29.54" fill="none" stroke="#000" stroke-linecap="round" stroke-linejoin="round"/>
</g>
<g stroke-width="4">
<path d="m1034.8 245.52c33.2 0 60.13-26.93 60.13-60.14s-26.93-60.13-60.13-60.13c-33.21 0-60.14 26.92-60.14 60.13s26.93 60.14 60.14 60.14z" fill="#ffffff00" opacity="0" stroke="#ffffff00"/>
<path d="m1034.8 234.29c33.2 0 60.13-26.92 60.13-60.13s-26.93-60.14-60.13-60.14c-33.21 0-60.14 26.93-60.14 60.14s26.93 60.13 60.14 60.13z" fill="#ff3094" stroke="#000"/>
<path d="m1034.8 213.88c21.94 0 39.72-17.78 39.72-39.72s-17.78-39.73-39.72-39.73c-21.95 0-39.73 17.79-39.73 39.73s17.78 39.72 39.73 39.72z" fill="#fff" stroke="#000"/>
<path d="m1034.5 156.95v17.57l18.3 18.3" fill="none" stroke="#000" stroke-linecap="round" stroke-linejoin="round"/>
</g>
<g stroke-width="4">
<path d="m1038.4 662.33c-7.9-32.48-20.39-74.03-38.24-110.31-1.66-3.42-3.61-6.73-5.75-9.86l-15.41 48.28-4.1 53.65 6.05 55.59-3.51 26.92h12.77c24.87 0.1 57.74-17.94 48.19-64.27z" fill="#fff" stroke="#000"/>
<path d="m903.08 386.21c-25.66-0.98-41.26-5.07-51.01 9.65-5.37 8.39-7.71 23.51-9.86 38.33 0 0-9.07 1.86-9.75 5.66-0.78 4.49 7.22 10.83 7.22 10.83-3.22 10.43-4.98 22.43 2.63 33.16 11.02 15.41 38.53 11.22 40.28 10.73l-0.09 17.07 67.2 2.04s-1.86-72.56-1.76-88.75c0-32.19-15.31-37.65-44.86-38.72z" fill="#dfb68b" stroke="#000"/>
<path d="m882.59 494.47-0.09 13.07 16.09-20.29c-8.97 5.66-16 7.22-16 7.22z" fill="#dfb68b00" opacity="0" stroke="#ffffff00"/>
<path d="m949.79 494.86c-15.7-1.07-26.33-5.75-32.38-9.46-6.63-4-7.4-5.12-8.93-6.7l1.46-1.15 0.31-0.2c0.6-0.43 21.31-13.8 14.58-30.57-1.86-4.49-5.27-7.03-10.44-7.81-0.98-0.09-1.95-0.19-3.02-0.19-9.85 0-22.73 5.85-22.83 5.95l-0.09 0.1-0.06 0.04c-0.14-0.24-5.8-11.65-7.38-22.88-0.07-0.28-2.42 0.01-4.56 0.01-0.78 0-1.37 0-1.95-0.09-2.44-0.39-4.1-1.37-5.07-3.03-1.76-3.22-0.39-7.7-0.81-8.83-0.17-0.53-1.44-0.53-2.61-0.53-2.63 0-5.07-0.2-7.21-0.49-6.05-0.97-10.93-4-10.93-4 1.17-3.9 2.73-7.12 4.29-9.56 9.56-14.53 25.26-21.45 47.7-21.45 1.46 0 3.02 0 4.58 0.09 15.02 0.59 26.73 5.17 34.92 13.66 8.39 8.78 12.68 21.16 12.68 37.06-0.1 11.22-1.08 48.57-1.76 69.84v0.19h-0.49z" fill="#221f1f" stroke="#000"/>
<path d="m691.04 556.01c-20.39-11.21-65.35-33.55-88.76-41.35-6.05-2.05-6.05 13.07 1.07 17.07-5.07-0.98-34.23-5.37-43.01-0.1-5.56 3.32-0.19 9.07-0.19 9.07-2.25 0-10.63 3.81-5.37 12.68-13.65 16.58 31.51 19.12 37.46 21.95-5.08 1.17-29.46 4.09-29.46 8.09 0 6.54 13.95 7.71 41.45 6.05 23.22 10.14 33.16 7.51 38.92 7.12l11.99 13.65c14.05-11.9 35.9-54.23 35.9-54.23z" fill="#dfb68b" stroke="#000"/>
<path d="m848.65 458.87 9.37-1.56" fill="none" stroke="#000" stroke-linecap="round" stroke-linejoin="round"/>
<path d="m882.59 494.57c4.78-1.66 8.98-4.1 12.98-6.24" fill="none" stroke="#000" stroke-linecap="round" stroke-linejoin="round"/>
<path d="m897.71 461.31 8.68-5.17" fill="none" stroke="#000" stroke-linecap="round" stroke-linejoin="round"/>
<path d="m854.41 436.93c1.72 0 3.12-1.41 3.12-3.13s-1.4-3.12-3.12-3.12-3.12 1.4-3.12 3.12 1.4 3.13 3.12 3.13z" stroke="#000"/>
<path d="m560.83 540.02c17.17 1.17 34.14 4.29 50.62 9.07" fill="none" stroke="#000" stroke-linecap="round" stroke-linejoin="round"/>
<path d="m603.16 531.14s13.46 3.71 18.34 5.76" fill="none" stroke="#000" stroke-linecap="round" stroke-linejoin="round"/>
<path d="m556.44 553.09s26.63 4.19 48.86 11.21" fill="none" stroke="#000" stroke-linecap="round" stroke-linejoin="round"/>
<path d="m851.48 522.76c-6.53 2.24-13.17 4.97-19.41 7.99-33.16 15.9-54.72 32.38-83.98 56.67 0 0-24.28-15.12-57.15-31.5l-35.7 54.23c21.95 22.53 61.16 54.22 90.81 54.22 42.52 0 76.95-24.28 76.95-24.28 49.84-33.46 38.62-95.58 28.48-117.33z" fill="#fff" stroke="#000"/>
<path d="m982.86 651.21s27.31-31.31 3.02-59.69c0 0 14.14-13.07 8.39-49.36-8.58-13.26-27.02-23.89-38.14-26.72l0.1-11.8h-80.17v11.7c-9.66 1.56-15.61 4.2-24.87 7.32 10.14 21.65 19.8 83.49-28.19 117.33 3.02 4.2 6.15 7.8 10.05 11.02-22.24 29.36 6.04 48.57 6.04 48.57v0.59l141.72-0.59c0.1 0.3 27.31-25.06 2.05-48.37z" fill="#ff3094" stroke="#000"/>
<path d="m982.86 651.31h-21.75s22.92 10.04 29.75 34.03c4.09-9.36 5.07-21.94-8-34.03z" fill="#ff309400" opacity="0" stroke="#ffffff00"/>
<path d="m992.71 634.33c4.49-11.6 6.14-27.6-6.83-42.72h-55.3s55.98 5.47 62.13 42.72z" fill="#ff309400" opacity="0" stroke="#ffffff00"/>
<path d="m833.05 651.31h150.78" fill="none" stroke="#000" stroke-linecap="round" stroke-linejoin="round"/>
<path d="m857.33 591.61h129.62" fill="none" stroke="#000" stroke-linecap="round" stroke-linejoin="round"/>
<path d="m856.26 534.95h132.16" fill="none" stroke="#000" stroke-linecap="round" stroke-linejoin="round"/>
<path d="m749.46 588.2c4.68 3.8 13.46 8.78 13.65 8.39" fill="none" stroke="#000" stroke-linecap="round" stroke-linejoin="round"/>
<path d="m1065 327.1c-2.83-5.85-20.09-3.8-41.64 4.29 10.92-11.7 16.38-21.75 13.16-25.84-4.58-5.95-25.74 2.53-47.75 16.31-1.04 1.06 0.17-16.61-3.93-18.46-7.32-3.31-22.53 14.53-33.55 39.5-9.27 21.07-9.37 37.16-5.76 44.77 0 0.29 0.1 0.59 0.2 0.88 0.19 0.78 0.68 1.46 1.27 2.14 4.77 7.51 20.28 17.17 42.72 20.19 27.5 3.61 50.7 0.1 51.68-7.99 0.68-5.86-10.92-13.56-27.5-18.14 26.43-8.69 45.54-19.9 43.3-27.8-0.98-3.32-5.46-5.37-12.39-6.15 14.24-9.65 22.53-18.82 20.19-23.7z" fill="#221f1f" stroke="#000"/>
<path d="m952.55 416.18c10.13-5.03 13.22-19.44 6.89-32.18-6.33-12.73-19.66-18.98-29.8-13.94-10.13 5.03-13.21 19.43-6.89 32.16 6.33 12.74 19.67 18.99 29.8 13.96z" fill="#633b45" stroke="#000"/>
<path d="m986.95 378.99c2.35 0.29 4.69 0.68 7.03 0.98 7.12 1.07 14.53 2.73 21.45 4.78" fill="none" stroke="#000" stroke-linecap="round" stroke-linejoin="round"/>
<path d="m1006.7 338.51c6.24-3.02 12.48-5.56 18.24-7.7" fill="none" stroke="#000" stroke-linecap="round" stroke-linejoin="round"/>
<path d="m981.88 361.92c4.78-1.85 9.95-3.41 15.22-4.97 19.21-5.46 37.06-7.51 48.18-6.05" fill="none" stroke="#000" stroke-linecap="round" stroke-linejoin="round"/>
<path d="m886.01 651.31s-34.04-8.3-35.9-42.72c-5.75 11.5-13.94 22.62-27.11 31.5 3.02 4.19 6.15 8 10.05 11.22-22.24 29.35 6.04 48.18 6.04 48.18v0.39h18.05c0 0.09-5.37-31.6 28.87-48.57z" fill="#ff309400" opacity="0" stroke="#ffffff00"/>
<path d="m643.25 596.59 11.89 13.56c8.1 8.29 18.54 17.75 29.95 26.62-18.63-29.55-22.63-37.45-22.63-37.45-4 2.63-19.21-2.73-19.21-2.73z" fill="#ffffff00" opacity="0" stroke="#ffffff00"/>
<path d="m894.88 1008.9 0.49-8.38c-1.36-12-3.12-23.7-5.27-34.82l-5.07-15.32-102.6 1.56 2.43 13.76c2.74 8.97 4.49 16.97 5.17 23.21l27.22 53.35 77.63-33.36z" fill="#e1aa70" stroke="#000"/>
<path d="m953.6 755.67c-7.22-31.6-18.92-51.5-18.92-51.5l-3.51 4.19s-135.38 15.12-176.93 64.47c-33.85 40.19 13.65 138.01 30.43 192.83h105.43c-9.07-47.4-24.28-89.93-42.42-125.92h24.18c66.04 0 91.69-40.57 81.74-84.07z" fill="#633b45" stroke="#000"/>
<path d="m754.24 772.83c-31.21 37.16 7.02 123.48 26.14 179.76 0 0 5.17-27.7 29.84-55.3 23.51-26.34 49.16-32.29 49.16-32.29-3.61-8.48-7.7-17.26-11.7-25.16l-93.44-67.01z" fill="#633b4500" opacity="0" stroke="#ffffff00"/>
<path d="M784.67 965.66H890.1" fill="none" stroke="#000" stroke-linecap="round" stroke-linejoin="round"/>
<path d="m754.82 1057.7c11.03-18.24 35.31-22.82 35.51-59.79 0-2.05 0-4.29-0.2-6.53-0.1-0.98-0.19-1.86-0.29-2.93h24.38c8.68 0 15.22 7.71 13.85 16.29l-3.8 23.89s26.82-26.43 71.1-28.38c0.98 7.9 1.66 16 2.24 24.29 0.2 3.02 0.39 6.24 0.59 9.26 0.39 7.71 0.78 15.71 0.88 23.8v0.1l-0.88 2.73-143.28-2.15v-0.58h-0.1z" fill="#ded8d9" stroke="#000"/>
<path d="m754.82 1057.8h144.16c0.1 6.73 0 13.55-0.2 20.58h-149.22c0-5.56 0.88-10.24 2.24-14.24 0.88-2.34 1.85-4.39 3.02-6.34z" fill="#ff3094" stroke="#000"/>
<path d="m787.01 1017.6 16.48 6.92" fill="none" stroke="#000" stroke-linecap="round" stroke-linejoin="round"/>
<path d="m779.31 1030.2 14.04 10.54" fill="none" stroke="#000" stroke-linecap="round" stroke-linejoin="round"/>
<path d="m824.27 1028.8-5.66 27.02" fill="none" stroke="#000" stroke-linecap="round" stroke-linejoin="round"/>
<path d="m758.92 963.71-92.27-47.6-2.92 11.12c-2.34 12.19-4.39 21.94-5.66 25.06l5.66 60.77h74.12l9.95-4.98c4.29-11.7 8-23.21 11.12-34.62v-9.75z" fill="#e1aa70" stroke="#000"/>
<path d="m985.39 736.55-7.02-32.77-121.23 9.17-18.05 5.17s-96.75 7.8-125.03 39.69c-26.73 30.14-31.41 68.76-42.24 126.02-2.92 15.31-5.65 30.82-8.09 43.3l95.19 46.43c16.58-62.42 18.04-93.64 17.95-133.92l124.55 0.39c54.71 0.3 95.58-50.13 83.97-103.48z" fill="#633b45" stroke="#000"/>
<path d="m776.87 839.74h-34.53c0 9.07 7.8 14.83 16.58 26.53 10.44 13.95 15.61 28.77 15.61 28.77 2.14-19.31 2.43-36.28 2.34-55.3z" fill="#633b4500" opacity="0" stroke="#ffffff00"/>
<path d="m663.83 927.13 95.19 46.52" fill="none" stroke="#000" stroke-linecap="round" stroke-linejoin="round"/>
<path d="m596.82 995.6c17.95-11.41 41.74-4.78 58.42-37.65 0.98-1.85 1.86-3.8 2.83-5.95l0.1-0.19 17.36 8.39c8.97 4.29 11.9 15.5 6.24 23.7l-12.48 17.84s37.06-12.67 78.71 6.44c-2.64 7.12-5.46 14.34-8.49 21.56-1.17 2.92-2.44 5.75-3.7 8.77-3.03 7.03-6.34 14.24-9.86 21.46-0.09 0.2-2.14 3.71-2.24 3.9l-127.38-67.78c0.1-0.2 0.2-0.3 0.49-0.49z" fill="#ded8d9" stroke="#000"/>
<path d="m591.75 999.6c1.46-1.37 2.92-2.54 4.48-3.51l129.33 64.56c-2.92 5.95-5.95 11.81-9.16 17.85l-133.53-66.71c2.64-5.27 5.56-9.17 8.88-12.19z" fill="#ff3094" stroke="#000"/>
<path d="m641.78 974.83 11.41 13.84" fill="none" stroke="#000" stroke-linecap="round" stroke-linejoin="round"/>
<path d="m628.52 981.75 7.61 15.7" fill="none" stroke="#000" stroke-linecap="round" stroke-linejoin="round"/>
<path d="m669.19 1001.7-17.46 21.27" fill="none" stroke="#000" stroke-linecap="round" stroke-linejoin="round"/>
<path d="m770.23 924.3c6.05-32.96 6.83-55.3 6.64-83.29" fill="none" stroke="#000" stroke-linecap="round" stroke-linejoin="round"/>
<path d="m980.91 699.29-141.82 0.59v18.24h142.7l-0.88-18.83z" fill="#2e2429" stroke="#000"/>
<path d="M847.68 839.74H742.34" fill="none" stroke="#000" stroke-linecap="round" stroke-linejoin="round"/>
<path d="m885.52 752.64h54.91s1.27 44.97-25.94 44.38c-27.21-0.58-28.97-44.38-28.97-44.38z" fill="#141414" stroke="#000"/>
<path d="m979.54 790.39c5.27-11.51 8.1-24.38 7.81-37.65h-21.27c0-0.1 0.98 25.16 13.46 37.65z" fill="#141414" stroke="#000"/>
</g>
<g stroke-width="4">
<path d="m954.73 841.52h-27.5v182.88h27.5v-182.88z" fill="#231f20" stroke="#000"/>
<path d="m1055.4 665.08h-105.53c-14.05 0-27.41 11.42-29.85 25.36l-27.7 157.52h156.35l27.7-157.52c2.44-13.94-7.02-25.36-20.97-25.36z" fill="#ffff9e" stroke="#000"/>
<path d="m872.9 1022.4h136.65c7.61 0 13.75 6.24 13.75 13.75 0 7.61-6.24 13.75-13.75 13.75h-136.65c-7.6 0-13.75-6.24-13.75-13.75 0-7.61 6.24-13.75 13.75-13.75z" fill="#ffff9e" stroke="#000"/>
<path d="m872.9 1077.5c7.6 0 13.76-6.16 13.76-13.75 0-7.6-6.16-13.76-13.76-13.76-7.59 0-13.75 6.16-13.75 13.76 0 7.59 6.16 13.75 13.75 13.75z" fill="#231f20" stroke="#000"/>
<path d="m941.27 1077.5c7.6 0 13.76-6.16 13.76-13.75 0-7.6-6.16-13.76-13.76-13.76-7.59 0-13.75 6.16-13.75 13.76 0 7.59 6.16 13.75 13.75 13.75z" fill="#231f20" stroke="#000"/>
<path d="m1009.6 1077.5c7.59 0 13.75-6.16 13.75-13.75 0-7.6-6.16-13.76-13.75-13.76-7.6 0-13.76 6.16-13.76 13.76 0 7.59 6.16 13.75 13.76 13.75z" fill="#231f20" stroke="#000"/>
<path d="m899.24 808.17-7.02 39.79h156.34l2.93-16.97-152.25-22.82z" fill="#ffff9e00" opacity="0" stroke="#ffffff00"/>
<path d="m775.56 837.13h139.67c7.61 0 13.76 6.25 13.76 13.76 0 7.6-6.25 13.75-13.76 13.75h-139.67c-7.6 0-13.75-6.24-13.75-13.75s6.24-13.76 13.75-13.76z" fill="#ffff9e" stroke="#000"/>
<path d="m893.58 837.13h154.4c7.6 0 13.75 6.25 13.75 13.76 0 7.6-6.24 13.75-13.75 13.75h-154.4c-7.61 0-13.75-6.24-13.75-13.75s6.14-13.76 13.75-13.76z" fill="#ffff9e" stroke="#000"/>
<path d="m894.56 835.18h155.37" fill="none" stroke="#000" stroke-linecap="round" stroke-linejoin="round"/>
</g>
</svg>
