<svg xmlns="http://www.w3.org/2000/svg" version="1.1"
     width="1200" height="800" preserveAspectRatio="none"
     viewBox="0 0 1200 800">
    <g mask="url(&quot;#SvgjsMask2071&quot;)" fill="none">
        <rect width="1200" height="800" x="0" y="0" fill="url(&quot;#SvgjsLinearGradient2072&quot;)"></rect>
        <path
            d="M -714.2494630449773,741 C -474.25,668 5.75,434.6 485.7505369550227,376 C 965.75,317.4 1542.9,479.8 1685.7505369550227,448 C 1828.6,416.2 1297.15,263.2 1200,217"
            stroke="rgba(30, 10, 202, 0.58)" stroke-width="2"></path>
        <path
            d="M -1038.421500645337,444 C -798.42,417.6 -318.42,316.2 161.57849935466314,312 C 641.58,307.8 1153.89,440.2 1361.578499354663,423 C 1569.26,405.8 1232.32,265.4 1200,226"
            stroke="rgba(30, 10, 202, 0.58)" stroke-width="2"></path>
        <path
            d="M -1629.0803945049815,9 C -1389.08,152 -909.08,681.8 -429.08039450498154,724 C 50.92,766.2 445.1,262.2 770.9196054950185,220 C 1096.74,177.8 1114.18,454.4 1200,513"
            stroke="rgba(30, 10, 202, 0.58)" stroke-width="2"></path>
        <path
            d="M -1655.0189893245415,29 C -1415.02,155.6 -935.02,664 -455.01898932454156,662 C 24.98,660 413.98,43.6 744.9810106754585,19 C 1075.98,-5.6 1109,435 1200,539"
            stroke="rgba(30, 10, 202, 0.58)" stroke-width="2"></path>
        <path
            d="M -1947.8964750090363,66 C -1707.9,137.6 -1227.9,390.8 -747.8964750090363,424 C -267.9,457.2 62.52,224.4 452.1035249909637,232 C 841.68,239.6 1050.42,416 1200,462"
            stroke="rgba(30, 10, 202, 0.58)" stroke-width="2"></path>
        <path
            d="M -2333.7612791491674,85 C -2093.76,205 -1613.76,674 -1133.7612791491676,685 C -653.76,696 -400.51,176.2 66.23872085083235,140 C 532.99,103.8 973.25,431.2 1200,504"
            stroke="rgba(30, 10, 202, 0.58)" stroke-width="2"></path>
        <path
            d="M -469.1935888175095,394 C -229.19,450.4 250.81,701.2 730.8064111824905,676 C 1210.81,650.8 1836.97,318.6 1930.8064111824906,268 C 2024.65,217.4 1346.16,392 1200,423"
            stroke="rgba(30, 10, 202, 0.58)" stroke-width="2"></path>
    </g>
    <defs>
        <mask id="SvgjsMask2071">
            <rect width="1200" height="800" fill="#ffffff"></rect>
        </mask>
        <linearGradient x1="91.67%" y1="112.5%" x2="8.33%" y2="-12.5%"
            gradientUnits="userSpaceOnUse" id="SvgjsLinearGradient2072">
            <stop stop-color="rgba(227, 227, 227, 1)" offset="0.49"></stop>
            <stop stop-color="rgba(237, 237, 237, 1)" offset="1"></stop>
            <stop stop-color="rgba(255, 255, 255, 1)" offset="1"></stop>
        </linearGradient>
    </defs>
</svg>