<?xml version="1.0" encoding="iso-8859-1"?>
<!-- Uploaded to: SVG Repo, www.svgrepo.com, Generator: SVG Repo Mixer Tools -->
<svg height="800px" width="800px" version="1.1" id="Layer_1" xmlns="http://www.w3.org/2000/svg" xmlns:xlink="http://www.w3.org/1999/xlink" 
	 viewBox="0 0 512 512" xml:space="preserve">
<g>
	<path style="fill:#211E48;" d="M256.001,469.018c-7.951,0-14.396-6.445-14.396-14.396s6.445-14.396,14.396-14.396
		c45.477,0,88.314-17.904,120.618-50.413c5.603-5.639,14.719-5.669,20.358-0.063c5.639,5.604,5.669,14.718,0.063,20.358
		C359.29,448.097,309.202,469.018,256.001,469.018z"/>
	<path style="fill:#211E48;" d="M440.651,284.367c-7.951,0-14.396-6.445-14.396-14.396v-55.905
		c0-93.878-76.376-170.255-170.255-170.255S85.744,120.187,85.744,214.066c0,7.951-6.445,14.396-14.396,14.396
		s-14.396-6.445-14.396-14.396c0-109.755,89.291-199.046,199.046-199.046s199.046,89.291,199.046,199.046v55.905
		C455.047,277.922,448.602,284.367,440.651,284.367z"/>
</g>
<path style="fill:#B0DACC;" d="M266.851,482.584h-21.7c-15.166,0-27.575-12.409-27.575-27.575l0,0
	c0-15.166,12.409-27.575,27.575-27.575h21.7c15.166,0,27.575,12.409,27.575,27.575l0,0
	C294.424,470.177,282.016,482.584,266.851,482.584z"/>
<path style="fill:#211E48;" d="M266.851,496.98h-21.7c-23.142,0-41.97-18.828-41.97-41.97s18.828-41.97,41.97-41.97h21.7
	c23.142,0,41.97,18.828,41.97,41.97S289.993,496.98,266.851,496.98z M245.149,441.83c-7.267,0-13.179,5.912-13.179,13.179
	s5.912,13.179,13.179,13.179h21.7c7.267,0,13.179-5.912,13.179-13.179s-5.912-13.179-13.179-13.179H245.149z"/>
<path style="fill:#B0DACC;" d="M95.443,318.621H51.68c-20.591,0-37.285-16.693-37.285-37.285v-41.471
	c0-20.591,16.693-37.285,37.285-37.285h43.763V318.621z"/>
<path style="fill:#211E48;" d="M95.443,333.017H51.68c-28.497,0-51.68-23.184-51.68-51.68v-41.472
	c0-28.496,23.183-51.679,51.679-51.679h43.763c7.951,0,14.396,6.445,14.396,14.396V318.62
	C109.838,326.571,103.393,333.017,95.443,333.017z M51.679,216.977c-12.621,0-22.888,10.267-22.888,22.888v41.472
	c0,12.621,10.267,22.888,22.888,22.888h29.367v-87.247L51.679,216.977L51.679,216.977z"/>
<path style="fill:#B0DACC;" d="M103.339,337.278L103.339,337.278c-16.588,0-30.16-13.572-30.16-30.16v-93.034
	c0-16.588,13.572-30.16,30.16-30.16l0,0c16.588,0,30.16,13.572,30.16,30.16v93.034C133.499,323.706,119.927,337.278,103.339,337.278
	z"/>
<path style="fill:#211E48;" d="M103.339,351.674c-24.567,0-44.556-19.987-44.556-44.556v-93.034
	c0-24.567,19.987-44.556,44.556-44.556s44.556,19.987,44.556,44.556v93.034C147.894,331.687,127.908,351.674,103.339,351.674z
	 M103.339,198.321c-8.692,0-15.765,7.073-15.765,15.765v93.034c0,8.692,7.073,15.765,15.765,15.765s15.765-7.073,15.765-15.765
	v-93.034C119.103,205.392,112.031,198.321,103.339,198.321z"/>
<path style="fill:#B0DACC;" d="M416.557,318.621h43.763c20.591,0,37.285-16.693,37.285-37.285v-41.471
	c0-20.591-16.693-37.285-37.285-37.285h-43.763V318.621z"/>
<path style="fill:#211E48;" d="M460.321,333.017h-43.763c-7.951,0-14.396-6.445-14.396-14.396V202.583
	c0-7.951,6.445-14.396,14.396-14.396h43.763c28.496,0,51.679,23.183,51.679,51.679v41.472
	C512,309.833,488.817,333.017,460.321,333.017z M430.953,304.226h29.367c12.621,0,22.888-10.267,22.888-22.888v-41.472
	c0-12.621-10.267-22.888-22.888-22.888h-29.367V304.226z"/>
<path style="fill:#B0DACC;" d="M408.661,337.278L408.661,337.278c16.588,0,30.16-13.572,30.16-30.16v-93.034
	c0-16.588-13.572-30.16-30.16-30.16l0,0c-16.588,0-30.16,13.572-30.16,30.16v93.034
	C378.501,323.706,392.073,337.278,408.661,337.278z"/>
<path style="fill:#211E48;" d="M408.661,351.674c-24.568,0-44.556-19.987-44.556-44.556v-93.034
	c0-24.567,19.987-44.556,44.556-44.556s44.556,19.987,44.556,44.556v93.034C453.217,331.687,433.229,351.674,408.661,351.674z
	 M408.661,198.321c-8.692,0-15.765,7.073-15.765,15.765v93.034c0,8.692,7.073,15.765,15.765,15.765
	c8.692,0,15.765-7.073,15.765-15.765v-93.034C424.426,205.392,417.353,198.321,408.661,198.321z"/>
</svg>