<svg id="visual" viewBox="0 0 960 540" width="960" height="540" xmlns="http://www.w3.org/2000/svg" version="1.1"><path d="M0 168L80 151C160 134 320 100 480 79.3C640 58.7 800 51.3 880 47.7L960 44L960 0L880 0C800 0 640 0 480 0C320 0 160 0 80 0L0 0Z" fill="#004cbb"></path><path d="M0 260L80 238.5C160 217 320 174 480 146.2C640 118.3 800 105.7 880 99.3L960 93L960 42L880 45.7C800 49.3 640 56.7 480 77.3C320 98 160 132 80 149L0 166Z" fill="#0059dd"></path><path d="M0 271L80 259.3C160 247.7 320 224.3 480 212.7C640 201 800 201 880 201L960 201L960 91L880 97.3C800 103.7 640 116.3 480 144.2C320 172 160 215 80 236.5L0 258Z" fill="#0066ff"></path><path d="M0 336L80 349.5C160 363 320 390 480 410.7C640 431.3 800 445.7 880 452.8L960 460L960 199L880 199C800 199 640 199 480 210.7C320 222.3 160 245.7 80 257.3L0 269Z" fill="#3c80ff"></path><path d="M0 541L80 541C160 541 320 541 480 541C640 541 800 541 880 541L960 541L960 458L880 450.8C800 443.7 640 429.3 480 408.7C320 388 160 361 80 347.5L0 334Z" fill="#6198ff"></path></svg>