<svg xmlns="http://www.w3.org/2000/svg" version="1.1" width="637.0869565010071" height="399.13043594360363"
     xml:space="preserve" style=""><rect id="backgroundrect" width="100%" height="100%" x="0" y="0" fill="none" stroke="none"/>
<desc>Created with Fabric.js 3.6.6</desc>
<defs>
</defs>



<g class="currentLayer" style=""><title>Layer 1</title><g id="svg_1" class="">
<g style="" stroke-width="0" id="svg_2">
		<g stroke-width="0" id="svg_3">
<path style="stroke: none; stroke-width: 1; stroke-dasharray: none; stroke-linecap: butt; stroke-dashoffset: 0; stroke-linejoin: miter; stroke-miterlimit: 4; fill: rgb(144,168,254); fill-rule: nonzero; opacity: 1;" d="M573.9633646686561,402.3691312898882 C404.23788815670457,402.3691312898882 234.5124505139529,402.3691312898882 64.49809683415249,402.0728160864639 C64.20965678550223,321.9823104321747 64.20956439150252,242.18810086531 64.21435294948677,162.3939104144452 C64.21445044108644,160.8034286340821 64.2717085956979,159.21294685371902 64.59386225903717,157.63647582690982 C65.94694498498193,157.66303878322236 67.0084621962867,157.68659734154477 68.06997430999151,157.68660753674473 C235.39548418264536,157.68804633434002 402.7209991528992,157.6879297267404 570.046513485953,157.6848278371506 C571.3201360977594,157.68480872115066 572.5937969415656,157.6430096756883 573.8977547336722,157.92009290877596 C573.9380072947396,159.49258717039828 573.9565587354786,160.76570384540634 573.9565976046784,162.0388205204144 C573.9598256598679,242.148917525839 573.9615365418622,322.25902472646357 573.9633646686561,402.3691312898882 z" stroke-linecap="round" stroke-width="0" id="svg_4"/>
</g>
		<g stroke-width="0" id="svg_5">
<path style="stroke: none; stroke-width: 0; stroke-dasharray: none; stroke-linecap: butt; stroke-dashoffset: 0; stroke-linejoin: miter; stroke-miterlimit: 4; fill: rgb(47,92,254); fill-rule: nonzero; opacity: 1;" d="M63.23319996194914,402.0446928967722 C42.40468616133037,402.0446928967722 21.576172360711606,402.0446928967722 0.4493648506750165,401.752889069333 C0.15128332885649812,273.82007455017236 0.15211041445377466,146.17905430045096 0.1454663300756514,18.53804360872951 C0.1453726616759597,16.737311317058712 0.051529669184952956,14.936584122987895 0.000012049354582987191,13.019412452500493 C-0.0014171902407109633,12.902969887683899 0.1244820597447456,12.707028976729065 0.28162832322731607,12.548295448051721 C0.5220502544356884,11.815019708866147 0.6053252849614921,11.24047813555792 0.7066056758280097,10.43860717939821 C3.3263292132021487,4.022863420523078 8.150025591319352,0.8492620685726701 14.952057830522566,-2.3099788835218016e-10 C15.679612150926978,0.059226465173989565 16.104120524329215,0.07414204272487757 16.52862953493145,0.07414331712487332 C217.268540270363,0.07470978792300832 418.0084554661945,0.07443515472391239 618.7483509088262,0.0687889255425036 C619.7009617196895,0.06876216314259188 620.653533661353,-0.007752812605470453 621.8288375878832,0.008317371341616031 C628.8236865464514,0.29992175518146186 633.5186028933927,3.75261606901291 636.713198073674,9.52949418919161 C636.713198073674,140.36790055518512 636.713198073674,271.2063062839786 636.713198073674,402.0446928967722 C616.0451898549268,402.0446928967722 595.4550423783231,402.0446928967722 574.5678023142978,401.7483776933479 C574.2701260516778,320.08836305942657 574.26946527528,238.72464387572973 574.279499263647,157.06235380061594 C574.2948226491966,141.00058853990188 574.3160184699268,125.23736549660484 574.2712538956741,109.4743469945071 C574.2678703636852,108.27751590324787 573.7965042140373,107.08201783438423 573.4090273557132,105.70348534052327 C570.6569019423749,98.77407172413947 566.8362297273551,96.189073037851 559.4220515569675,96.18893667705146 C399.2485859707644,96.18606863986089 239.0751006313614,96.20982154418267 78.9016974907581,96.10910252651432 C71.43904560493007,96.10440636252977 66.5199145087271,98.91737736646763 63.76705504099134,106.0506121461803 C63.45743446441081,107.16132756932309 63.219646080793765,108.09304331785526 63.21893623999611,109.02493493358686 C63.206603234036706,125.13630621413758 63.223443155581265,141.24771572668817 63.23178028035382,157.65546019586304 C63.23083722435692,239.31610693218224 63.23201859315303,320.6804097910772 63.23319996194914,402.0446928967722 z" stroke-linecap="round" stroke-width="0" id="svg_6"/>
</g>
		<g stroke-width="0" id="svg_7">
<path style="stroke: none; stroke-width: 1; stroke-dasharray: none; stroke-linecap: butt; stroke-dashoffset: 0; stroke-linejoin: miter; stroke-miterlimit: 4; fill: rgb(55,94,225); fill-rule: nonzero; opacity: 1;" d="M574.5939450005316,157.679003967716 C574.5945675449295,239.04270403541295 574.5952283213273,320.4064232191098 574.5942559541305,402.0664378530311 C574.5927005489357,402.3627530564554 574.2741005499847,402.3627530564554 574.1148005505092,402.3627530564554 C573.9536724242398,322.2526464930308 573.9519615422455,242.14253929240624 573.9487334870561,162.03244228698162 C573.9486946178562,160.75932561197357 573.9301431771172,159.4862089369655 573.9285100335226,157.89292729981162 C573.9368325026952,157.57275214246587 573.9859134697336,157.6453241246269 574.1377856288335,157.656232988591 C574.2896571507334,157.6671322945551 574.5939450005316,157.679003967716 574.5939450005316,157.679003967716 z" stroke-linecap="round" stroke-width="0" id="svg_8"/>
</g>
		<g stroke-width="0" id="svg_9">
<path style="stroke: none; stroke-width: 1; stroke-dasharray: none; stroke-linecap: butt; stroke-dashoffset: 0; stroke-linejoin: miter; stroke-miterlimit: 4; fill: rgb(55,93,228); fill-rule: nonzero; opacity: 1;" d="M63.721137799788266,402.36026182072237 C63.560656431516676,320.9959787150274 63.559475062720566,239.63167585613243 63.71300967661504,157.96674140102735 C63.867730119705584,157.66610916761724 64.17236333190253,157.64547726888517 64.19649983062305,157.60888032420567 C64.2206325061436,157.5722731843262 64.29796819548896,157.61359560419015 64.29796819548896,157.61359560419015 C64.26738004678967,159.20407738455322 64.21012189217821,160.7945591649163 64.21002440057853,162.3850409452794 C64.20523584259429,242.1792313961442 64.205328236594,321.9734409630089 64.20196445780506,402.0639466172981 C64.1990377982147,402.36026182072237 63.880437799263746,402.36026182072237 63.721137799788266,402.36026182072237 z" stroke-linecap="round" stroke-width="0" id="svg_10"/>
</g>
		<g stroke-width="0" id="svg_11">
<path style="stroke: none; stroke-width: 1; stroke-dasharray: none; stroke-linecap: butt; stroke-dashoffset: 0; stroke-linejoin: miter; stroke-miterlimit: 4; fill: rgb(245,245,245); fill-rule: nonzero; opacity: 1;" d="M64.27387791154018,106.18724894297102 C66.84456890907576,99.2329443830692 71.76370000527874,96.41997337913133 79.22635189110676,96.42466954311588 C239.39975503171007,96.52538856078424 399.57324037111306,96.50163565646245 559.7467059573162,96.50450369365302 C567.1608841277038,96.50464005445257 570.9815563427236,99.08963874074104 573.7146250157246,106.30286378499034 C573.8813528555755,123.7269913152186 573.9333897934042,140.68491592738192 573.9854656004328,157.64283098154525 C573.9854656004328,157.64283098154525 573.9363846333944,157.5702589993842 573.8977263467217,157.59104637491575 C572.5854849546424,157.63413829917386 571.3118241108361,157.67593734463622 570.0382014990298,157.67595646063617 C402.712687165976,157.67905835022597 235.38717219572214,157.67917495782558 68.06166232306829,157.6777361602303 C67.00015020936348,157.67772596503033 65.93863299805871,157.65416740670793 64.58555536971393,157.62760445039538 C64.29398475747398,157.61359369684152 64.21664906812862,157.57227127697757 64.2113112437462,157.31454681702616 C64.22860294008926,140.1002874781069 64.25123819561472,123.14377298953893 64.27387791154018,106.18724894297102 M481.879652984906,108.6119848205872 C439.95026762576526,108.6119848205872 398.0208816294245,108.6118873289875 356.09149627028376,108.61202368978705 C333.48143626993095,108.6121014281868 310.8712978939785,108.57719624950174 288.2614124864252,108.63566954450921 C281.948333754012,108.65199460845545 277.10319814476543,111.33473722562208 273.90730052768845,116.97825830703988 C271.6174598896281,121.02175999852601 271.8812422099595,125.34888769267825 271.9342126457851,129.68465008400204 C272.0417286758311,138.48433171622767 278.9599224746518,145.54239919818787 287.71879718181185,145.5457636141768 C371.0469115650406,145.5777128220716 454.3750068322695,145.57229725928943 537.7031409686982,145.55151944175782 C544.638602250262,145.54978880656353 550.5928290598569,141.3505458775902 552.5679387773534,134.70056803668632 C553.4219594557414,131.82539930375327 553.4956981510986,128.6512130022048 553.5210166558153,125.60950058022013 C553.6065002215338,115.33735361644283 546.8772808260909,108.62389536294796 536.6536120381539,108.61587365217439 C518.6080258987719,108.60170742182103 500.56243912218986,108.61195550938729 481.879652984906,108.6119848205872 M116.34582350808492,113.45816989823034 C111.79318245107523,110.33649652290896 106.58329253542963,112.02153368536071 105.6875218759791,116.9053951244798 C105.15027306974808,119.83461307283488 106.44275807589236,122.58445348698059 108.93946250727156,123.82401648449913 C111.68420850743404,125.18672921401219 114.8100523567417,124.64468738939695 116.77071420148589,122.46601903497056 C118.94176992753735,120.05356327571394 118.9150030672255,117.1005236054373 116.34582350808492,113.45816989823034 M134.61761309792212,112.18412928322533 C129.82987264128653,110.13880076315989 124.6149169856576,115.0786077248948 126.30369706089702,120.0602621592919 C127.28683803525988,122.96040913214269 129.4158130734499,124.56966537324396 132.52355343361717,124.5093059662427 C135.48653915866103,124.45177572723213 137.47109026852658,122.83623796855154 138.44752216411155,120.08082587762418 C139.47239336633697,117.18871081074693 138.3078816961713,114.63922965234153 134.61761309792212,112.18412928322533 M91.2182226364216,124.53859104094629 C94.15258406315974,124.28803189497128 96.52051865856292,122.82496908658865 96.92457354923252,119.9696351151903 C97.2004607579241,118.02000893720977 96.60359105948939,115.52193325143507 95.48318254997852,113.90044531917408 C93.85074624735358,111.53794540255299 91.07378851289717,111.12045387552764 88.36704002300958,112.38124200497631 C85.70768137136594,113.61994924289766 84.40981967163935,115.81067405848434 84.6226151597387,118.7534458879948 C84.8479921617966,121.87021919533231 86.8992224282426,123.76641806508877 91.2182226364216,124.53859104094629 z" stroke-linecap="round" stroke-width="0" id="svg_12"/>
</g>
		<g stroke-width="0" id="svg_13">
<path style="stroke: none; stroke-width: 1; stroke-dasharray: none; stroke-linecap: butt; stroke-dashoffset: 0; stroke-linejoin: miter; stroke-miterlimit: 4; fill: rgb(66,94,195); fill-rule: nonzero; opacity: 1;" d="M574.1308499131582,157.6545963046501 C573.9269019470297,140.6857723865227 573.874865009201,123.72784777435938 573.8418465797098,106.48612192953053 C574.1146707680115,107.39844131012657 574.5860369176594,108.59393937899021 574.5894204496483,109.79077047024944 C574.634185023901,125.55378897234718 574.6129892031707,141.31701201564422 574.5976658176212,157.37877727635828 C574.5870092848562,157.6773672837751 574.2827214350581,157.66549561061422 574.1308499131582,157.6545963046501 z" stroke-linecap="round" stroke-width="0" id="svg_14"/>
</g>
		<g stroke-width="0" id="svg_15">
<path style="stroke: none; stroke-width: 1; stroke-dasharray: none; stroke-linecap: butt; stroke-dashoffset: 0; stroke-linejoin: miter; stroke-miterlimit: 4; fill: rgb(66,94,195); fill-rule: nonzero; opacity: 1;" d="M64.10098881164792,106.38119339398685 C64.26051756592264,123.15878722074392 64.23788231039718,140.1153017093119 64.19645347813359,157.36615799291064 C64.17765926419547,157.66048959274153 63.87302605199852,157.6811214914736 63.72043449410096,157.6853996522595 C63.55737692623785,141.57829697449472 63.54053700469329,125.46688746194413 63.5528700106527,109.35551618139341 C63.55357985145035,108.42362456566181 63.791368235067395,107.49190881712964 64.10098881164792,106.38119339398685 z" stroke-linecap="round" stroke-width="0" id="svg_16"/>
</g>
		<g stroke-width="0" id="svg_17">
<path style="stroke: none; stroke-width: 1; stroke-dasharray: none; stroke-linecap: butt; stroke-dashoffset: 0; stroke-linejoin: miter; stroke-miterlimit: 4; fill: rgb(196,196,196); fill-rule: nonzero; opacity: 1;" d="M482.2016093810089,108.62333773853436 C500.5657955193418,108.62329886933449 518.6113822959238,108.61305078176824 536.6569684353059,108.62721701212159 C546.8806372232428,108.63523872289517 553.6098566186857,115.34869697639003 553.5243730529672,125.62084394016733 C553.4990545482506,128.66255636215203 553.4253158528934,131.83674266370048 552.5712951745054,134.71191139663352 C550.5961854570088,141.3618892375374 544.641958647414,145.56113216651073 537.7064973658502,145.56286280170502 C454.37836322942144,145.58364061923663 371.05026796219255,145.5890561820188 287.7221535789638,145.557106974124 C278.96327887180377,145.55374255813507 272.04508507298306,138.49567507617488 271.93756904293707,129.69599344394925 C271.88459860711146,125.36023105262545 271.62081628678004,121.03310335847321 273.9106569248404,116.98960166698708 C277.1065545419174,111.34608058556928 281.951690151164,108.66333796840266 288.2647688835771,108.64701290445642 C310.87465429113047,108.58853960944894 333.4847926670829,108.62344478813401 356.0948526674357,108.62336704973426 C398.0242380265764,108.62323068893471 439.9536240229172,108.6233281805344 482.2016093810089,108.62333773853436 z" stroke-linecap="round" stroke-width="0" id="svg_18"/>
</g>
		<g stroke-width="0" id="svg_19">
<path style="stroke: none; stroke-width: 1; stroke-dasharray: none; stroke-linecap: butt; stroke-dashoffset: 0; stroke-linejoin: miter; stroke-miterlimit: 4; fill: rgb(238,219,100); fill-rule: nonzero; opacity: 1;" d="M116.52042089012447,113.6375512020736 C118.91638655063538,117.10463030585768 118.94315341094723,120.05766997613432 116.77209768489577,122.47012573539094 C114.81143584015159,124.64879408981733 111.68559199084392,125.19083591443257 108.94084599068144,123.8281231849195 C106.44414155930224,122.58856018740097 105.15165655315796,119.83871977325526 105.68890535938898,116.90950182490018 C106.58467601883952,112.02564038578109 111.7945659344851,110.34060322332934 116.52042089012447,113.6375512020736 z" stroke-linecap="round" stroke-width="0" id="svg_20"/>
</g>
		<g stroke-width="0" id="svg_21">
<path style="stroke: none; stroke-width: 1; stroke-dasharray: none; stroke-linecap: butt; stroke-dashoffset: 0; stroke-linejoin: miter; stroke-miterlimit: 4; fill: rgb(95,174,108); fill-rule: nonzero; opacity: 1;" d="M134.84137818549314,112.28370332149926 C138.30344061369374,114.63728689854972 139.4679522838594,117.18676805695512 138.44308108163398,120.07888312383237 C137.466649186049,122.83429521475973 135.48209807618346,124.44983297344032 132.5191123511396,124.5073632124509 C129.41137199097233,124.56772261945216 127.2823969527823,122.95846637835088 126.29925597841945,120.05831940550009 C124.61047590318003,115.07666497110299 129.82543155880896,110.13685800936808 134.84137818549314,112.28370332149926 z" stroke-linecap="round" stroke-width="0" id="svg_22"/>
</g>
		<g stroke-width="0" id="svg_23">
<path style="stroke: none; stroke-width: 1; stroke-dasharray: none; stroke-linecap: butt; stroke-dashoffset: 0; stroke-linejoin: miter; stroke-miterlimit: 4; fill: rgb(234,97,98); fill-rule: nonzero; opacity: 1;" d="M90.96072146135654,124.55068429331199 C86.90039896432582,123.7747384562669 84.84916869787982,121.87853958651044 84.62379169582192,118.76176627917293 C84.41099620772258,115.81899444966247 85.70885790744916,113.62826963407579 88.3682165590928,112.38956239615445 C91.07496504898039,111.12877426670578 93.8519227834368,111.54626579373112 95.48435908606174,113.90876571035221 C96.60476759557261,115.5302536426132 97.20163729400733,118.0283293283879 96.92575008531574,119.97795550636843 C96.52169519464614,122.83328947776678 94.15376059924296,124.29635228614941 90.96072146135654,124.55068429331199 z" stroke-linecap="round" stroke-width="0" id="svg_24"/>
</g>
</g>
</g><g id="svg_25" class="">
<line style="stroke: rgb(0,0,0); stroke-width: 2; stroke-dasharray: none; stroke-linecap: butt; stroke-dashoffset: 0; stroke-linejoin: miter; stroke-miterlimit: 4; fill: rgb(0,0,0); fill-rule: nonzero; opacity: 1;" x1="217.37535775499418" y1="459.9048332204111" x2="217.37535775499418" y2="459.9048332204111" points="null" d="null" stroke-width="0" id="svg_26"/>
</g><g id="svg_27" class="">
<line style="stroke: rgb(0,0,0); stroke-width: 2; stroke-dasharray: none; stroke-linecap: butt; stroke-dashoffset: 0; stroke-linejoin: miter; stroke-miterlimit: 4; fill: rgb(0,0,0); fill-rule: nonzero; opacity: 1;" x1="237.37535775499418" y1="339.9048332204111" x2="237.37535775499418" y2="339.9048332204111" points="null" d="null" stroke-width="0" id="svg_28"/>
</g></g></svg>