<svg version="1.1" id="Layer_1" xmlns="http://www.w3.org/2000/svg" xmlns:xlink="http://www.w3.org/1999/xlink" x="0px" y="0px"
	 width="100%" viewBox="0 0 1336 781" enable-background="new 0 0 1336 781" xml:space="preserve">
<path fill="#2F5CFE" opacity="1.000000" stroke="none" 
	d="
M974.000000,782.000000 
	C649.371582,782.000000 325.243103,782.000000 1.057328,782.000000 
	C1.057328,521.735596 1.057328,261.471161 1.057328,1.103367 
	C446.211884,1.103367 891.423828,1.103367 1336.817871,1.103367 
	C1336.817871,261.333221 1336.817871,521.666626 1336.817871,782.000000 
	C1216.137573,782.000000 1095.318848,782.000000 974.000000,782.000000 
M835.998718,470.500000 
	C835.998718,539.489807 835.995972,608.479553 836.000366,677.469360 
	C836.001770,699.828186 850.164856,713.997986 872.513306,713.999695 
	C934.837219,714.004395 997.161194,714.004333 1059.485107,713.999634 
	C1081.834839,713.997986 1095.999023,699.829163 1095.999512,677.470886 
	C1096.002686,544.490906 1096.002563,411.510956 1095.999512,278.531006 
	C1095.998901,256.171906 1081.835693,242.002121 1059.487061,242.000381 
	C997.163086,241.995529 934.839172,241.995544 872.515198,242.000381 
	C850.165039,242.002106 836.001892,256.170776 836.000305,278.528778 
	C835.995728,342.185852 835.998718,405.842926 835.998718,470.500000 
M456.500000,534.000793 
	C462.164886,534.000793 467.829742,534.002380 473.494629,534.000488 
	C487.228210,533.995911 492.999695,528.276855 492.999847,514.653503 
	C493.001373,372.198730 493.001434,229.743942 492.999725,87.289154 
	C492.999573,73.718842 487.197296,68.000160 473.437317,67.999863 
	C401.793396,67.998314 330.149445,67.998245 258.505524,67.999924 
	C244.771881,68.000252 239.000275,73.723305 239.000122,87.346306 
	C238.998581,229.801102 238.998505,372.255890 239.000214,514.710693 
	C239.000366,528.281128 244.802734,533.999756 258.562500,534.000122 
	C324.208344,534.001648 389.854156,534.000793 456.500000,534.000793 
z"/>
<path fill="#EFFFFF" opacity="1.000000" stroke="none" 
	d="
M835.998718,470.000000 
	C835.998718,405.842926 835.995728,342.185852 836.000305,278.528778 
	C836.001892,256.170776 850.165039,242.002106 872.515198,242.000381 
	C934.839172,241.995544 997.163086,241.995529 1059.487061,242.000381 
	C1081.835693,242.002121 1095.998901,256.171906 1095.999512,278.531006 
	C1096.002563,411.510956 1096.002686,544.490906 1095.999512,677.470886 
	C1095.999023,699.829163 1081.834839,713.997986 1059.485107,713.999634 
	C997.161194,714.004333 934.837219,714.004395 872.513306,713.999695 
	C850.164856,713.997986 836.001770,699.828186 836.000366,677.469360 
	C835.995972,608.479553 835.998718,539.489807 835.998718,470.000000 
M1085.998901,458.500000 
	C1085.998901,428.671875 1085.999390,398.843750 1085.998901,369.015625 
	C1085.998413,338.187714 1086.036133,307.359741 1085.975952,276.531952 
	C1085.953247,264.935791 1079.085693,254.776947 1068.096924,253.155533 
	C1058.411377,251.726440 1048.348145,252.856537 1037.989258,252.856537 
	C1037.989258,254.893158 1038.050903,257.031952 1037.979004,259.166260 
	C1037.601196,270.392670 1029.440430,278.880035 1018.238342,278.930359 
	C983.411865,279.086853 948.583801,279.087067 913.757324,278.929993 
	C902.556824,278.879486 894.396362,270.389038 894.021484,259.161652 
	C893.946289,256.909668 894.010620,254.653061 894.010620,252.001785 
	C886.383057,252.001785 879.574829,251.997162 872.766541,252.002686 
	C855.695435,252.016556 846.005493,261.605652 846.004822,278.536102 
	C845.999268,411.512695 845.999268,544.489258 846.004822,677.465881 
	C846.005554,694.394836 855.695740,703.994263 872.768494,703.995911 
	C934.924255,704.001953 997.079956,704.002075 1059.235718,703.995911 
	C1076.501831,703.994202 1085.995972,694.399475 1085.996948,676.961731 
	C1086.000977,604.474487 1085.998779,531.987244 1085.998901,458.500000 
z"/>
<path fill="#F0FFFF" opacity="1.000000" stroke="none" 
	d="
M456.000000,534.000793 
	C389.854156,534.000793 324.208344,534.001648 258.562500,534.000122 
	C244.802734,533.999756 239.000366,528.281128 239.000214,514.710693 
	C238.998505,372.255890 238.998581,229.801102 239.000122,87.346306 
	C239.000275,73.723305 244.771881,68.000252 258.505524,67.999924 
	C330.149445,67.998245 401.793396,67.998314 473.437317,67.999863 
	C487.197296,68.000160 492.999573,73.718842 492.999725,87.289154 
	C493.001434,229.743942 493.001373,372.198730 492.999847,514.653503 
	C492.999695,528.276855 487.228210,533.995911 473.494629,534.000488 
	C467.829742,534.002380 462.164886,534.000793 456.000000,534.000793 
M419.500000,526.999268 
	C437.497162,526.999207 455.494354,527.004456 473.491516,526.996948 
	C483.238922,526.992859 485.996338,524.261230 485.996582,514.584351 
	C485.999908,372.106140 486.000153,229.627945 485.995544,87.149742 
	C485.995239,77.821548 483.146179,75.004730 473.725525,75.004059 
	C401.903168,74.998947 330.080841,74.998901 258.258484,75.004128 
	C248.849670,75.004807 246.004654,77.825684 246.004364,87.165741 
	C245.999863,229.643936 246.000183,372.122131 246.003540,514.600342 
	C246.003754,524.265259 248.764664,526.996094 258.524475,526.996887 
	C311.849640,527.001526 365.174835,526.999207 419.500000,526.999268 
z"/>
<path fill="#728FF9" opacity="1.000000" stroke="none" 
	d="
M1085.998901,459.000000 
	C1085.998779,531.987244 1086.000977,604.474487 1085.996948,676.961731 
	C1085.995972,694.399475 1076.501831,703.994202 1059.235718,703.995911 
	C997.079956,704.002075 934.924255,704.001953 872.768494,703.995911 
	C855.695740,703.994263 846.005554,694.394836 846.004822,677.465881 
	C845.999268,544.489258 845.999268,411.512695 846.004822,278.536102 
	C846.005493,261.605652 855.695435,252.016556 872.766541,252.002686 
	C879.574829,251.997162 886.383057,252.001785 894.010620,252.001785 
	C894.010620,254.653061 893.946289,256.909668 894.021484,259.161652 
	C894.396362,270.389038 902.556824,278.879486 913.757324,278.929993 
	C948.583801,279.087067 983.411865,279.086853 1018.238342,278.930359 
	C1029.440430,278.880035 1037.601196,270.392670 1037.979004,259.166260 
	C1038.050903,257.031952 1037.989258,254.893158 1037.989258,252.856537 
	C1048.348145,252.856537 1058.411377,251.726440 1068.096924,253.155533 
	C1079.085693,254.776947 1085.953247,264.935791 1085.975952,276.531952 
	C1086.036133,307.359741 1085.998413,338.187714 1085.998901,369.015625 
	C1085.999390,398.843750 1085.998901,428.671875 1085.998901,459.000000 
M873.316650,647.042664 
	C877.723633,653.201172 883.696472,656.038208 891.283020,656.029541 
	C941.107422,655.972839 990.931946,656.021057 1040.756470,655.986145 
	C1053.687500,655.977051 1061.975220,647.637634 1061.987671,634.657349 
	C1062.023560,597.497253 1062.027954,560.337158 1061.984863,523.177124 
	C1061.969971,510.268524 1053.618164,502.019226 1040.590942,502.011475 
	C990.933105,501.981903 941.275208,501.984589 891.617371,502.008942 
	C878.291931,502.015472 870.022339,510.224152 870.010681,523.468689 
	C869.978149,560.462158 869.910156,597.456116 870.127930,634.448303 
	C870.151428,638.437561 871.956177,642.416260 873.316650,647.042664 
M1062.000244,393.500000 
	C1062.000122,369.513672 1062.025269,345.527313 1061.989746,321.541016 
	C1061.970093,308.272736 1053.732300,300.017853 1040.467041,300.010742 
	C990.828674,299.984100 941.190369,299.984375 891.552002,300.010498 
	C878.275208,300.017456 870.021790,308.261871 870.010742,321.521973 
	C869.979858,358.500854 869.980225,395.479797 870.010498,432.458679 
	C870.021362,445.728180 878.267334,453.982117 891.532654,453.989227 
	C941.170959,454.015839 990.809326,454.015594 1040.447632,453.989502 
	C1053.724487,453.982513 1061.951294,445.737488 1061.991577,432.478302 
	C1062.029907,419.818970 1062.000122,407.159454 1062.000244,393.500000 
M954.500000,697.000000 
	C975.806152,697.000000 997.112305,697.000061 1018.418457,696.999878 
	C1022.912720,696.999878 1027.406982,697.002930 1031.901245,696.997192 
	C1034.612183,696.993774 1037.863159,697.166260 1037.758057,693.394287 
	C1037.653809,689.652466 1034.344849,690.037048 1031.681519,690.001709 
	C1031.348633,689.997253 1031.015625,690.000122 1030.682739,690.000122 
	C987.571106,690.000061 944.459412,689.999695 901.347778,690.002136 
	C900.182983,690.002197 898.809631,689.646362 897.901367,690.137146 
	C896.478394,690.906128 895.369690,692.256531 894.127869,693.360657 
	C895.442261,694.563782 896.599548,696.066650 898.125305,696.866394 
	C899.173950,697.416077 900.734070,696.998535 902.065613,696.998718 
	C919.210388,697.000671 936.355225,697.000000 954.500000,697.000000 
z"/>
<path fill="#728FF9" opacity="1.000000" stroke="none" 
	d="
M419.000000,526.999268 
	C365.174835,526.999207 311.849640,527.001526 258.524475,526.996887 
	C248.764664,526.996094 246.003754,524.265259 246.003540,514.600342 
	C246.000183,372.122131 245.999863,229.643936 246.004364,87.165741 
	C246.004654,77.825684 248.849670,75.004807 258.258484,75.004128 
	C330.080841,74.998901 401.903168,74.998947 473.725525,75.004059 
	C483.146179,75.004730 485.995239,77.821548 485.995544,87.149742 
	C486.000153,229.627945 485.999908,372.106140 485.996582,514.584351 
	C485.996338,524.261230 483.238922,526.992859 473.491516,526.996948 
	C455.494354,527.004456 437.497162,526.999207 419.000000,526.999268 
M462.001587,350.546326 
	C463.659912,333.663971 453.287415,324.543732 436.474365,324.770782 
	C388.509003,325.418518 340.529175,324.992798 292.555054,325.002045 
	C277.923798,325.004883 270.006561,332.909332 270.002167,347.517090 
	C269.991241,383.830841 269.991455,420.144592 270.002045,456.458344 
	C270.006317,471.083313 277.912445,478.995026 292.530518,478.997833 
	C341.504120,479.007202 390.477692,479.007080 439.451294,478.997925 
	C454.079559,478.995178 461.993225,471.089142 461.997833,456.476532 
	C462.008911,421.495392 462.001526,386.514282 462.001587,350.546326 
M293.597046,277.000763 
	C342.405334,277.000641 391.213654,277.010986 440.021942,276.993744 
	C453.924774,276.988831 461.987976,268.875397 461.994568,254.902924 
	C462.011871,218.255051 462.013641,181.607193 461.993622,144.959320 
	C461.986023,131.063675 453.871704,123.009521 439.884186,123.005272 
	C390.742737,122.990349 341.601257,122.993034 292.459808,123.003212 
	C277.888977,123.006233 270.006500,130.948257 270.002533,145.614822 
	C269.992767,181.762955 269.994904,217.911072 270.001434,254.059204 
	C270.004181,269.129639 277.696808,276.915924 293.597046,277.000763 
M375.500000,520.000000 
	C382.990479,520.000000 390.480957,520.000854 397.971436,519.999817 
	C409.623291,519.998291 421.279022,520.140259 432.922760,519.831848 
	C434.602234,519.787354 436.224243,517.574097 437.872864,516.364502 
	C436.299652,515.246399 434.790192,514.016113 433.120483,513.067932 
	C432.489716,512.709717 431.488678,513.000488 430.656433,513.000427 
	C387.544525,512.999939 344.432648,512.999878 301.320740,513.000977 
	C300.322083,513.000977 299.124237,512.664795 298.366516,513.095703 
	C296.826599,513.971619 295.524445,515.265564 294.124268,516.387146 
	C295.448608,517.582214 296.618439,519.075562 298.150635,519.869507 
	C299.204102,520.415405 300.760437,519.998779 302.091980,519.998901 
	C326.227997,520.000488 350.363983,520.000000 375.500000,520.000000 
M364.059082,97.769325 
	C371.523254,98.056763 376.474152,92.317070 373.014954,86.803978 
	C371.559326,84.484039 367.658173,82.177452 365.160614,82.458527 
	C362.644592,82.741684 359.441650,85.831551 358.421051,88.430450 
	C356.839935,92.456635 359.365570,95.706154 364.059082,97.769325 
z"/>
<path fill="#F4F5DC" opacity="1.000000" stroke="none" 
	d="
M873.125610,646.721252 
	C871.956177,642.416260 870.151428,638.437561 870.127930,634.448303 
	C869.910156,597.456116 869.978149,560.462158 870.010681,523.468689 
	C870.022339,510.224152 878.291931,502.015472 891.617371,502.008942 
	C941.275208,501.984589 990.933105,501.981903 1040.590942,502.011475 
	C1053.618164,502.019226 1061.969971,510.268524 1061.984863,523.177124 
	C1062.027954,560.337158 1062.023560,597.497253 1061.987671,634.657349 
	C1061.975220,647.637634 1053.687500,655.977051 1040.756470,655.986145 
	C990.931946,656.021057 941.107422,655.972839 891.283020,656.029541 
	C883.696472,656.038208 877.723633,653.201172 873.125610,646.721252 
M1028.069214,634.973083 
	C1040.351562,633.261841 1046.943970,625.747253 1046.993530,613.355835 
	C1047.020142,606.694275 1047.073364,600.031433 1046.978149,593.371155 
	C1046.810303,581.630554 1038.473755,573.069153 1026.796021,573.042236 
	C985.993713,572.948181 945.190857,572.954590 904.388489,573.036377 
	C892.438782,573.060303 884.149048,581.613281 884.015625,593.686096 
	C883.945679,600.013916 883.991577,606.343079 884.003418,612.671631 
	C884.030151,626.970764 891.994690,634.988831 906.243347,634.993347 
	C946.546326,635.006226 986.849243,634.994263 1028.069214,634.973083 
M909.938171,533.828796 
	C909.202698,527.858459 905.745850,526.444275 897.531494,528.849854 
	C897.531494,534.365356 897.531494,539.917297 897.531494,545.961182 
	C900.636658,545.961182 903.440369,546.238647 906.166443,545.897095 
	C910.402466,545.366394 911.789612,542.195740 910.017639,538.328003 
	C909.521179,537.244385 909.805298,535.803223 909.938171,533.828796 
M950.102295,534.451477 
	C950.124756,536.267578 949.821411,538.161499 950.232849,539.884705 
	C951.321167,544.442627 956.355347,547.018127 961.347351,545.828735 
	C966.108032,544.694458 967.033752,542.931885 965.705078,536.897461 
	C963.524536,537.050903 961.286926,537.208313 959.049377,537.365784 
	C959.052185,537.760681 959.054993,538.155579 959.057861,538.550476 
	C960.581238,538.869629 962.104614,539.188782 963.627991,539.507935 
	C963.875244,539.937561 964.122559,540.367188 964.369812,540.796814 
	C962.757324,541.846008 960.999084,543.915283 959.565857,543.710510 
	C957.294983,543.386047 953.719238,541.826904 953.426819,540.275391 
	C952.890564,537.429993 953.346008,533.235413 955.181885,531.351929 
	C958.787720,527.652527 962.207581,531.051636 965.666931,533.305786 
	C964.552734,531.077576 963.093201,528.996399 961.134644,528.280579 
	C956.745544,526.676453 952.910278,528.872681 950.102295,534.451477 
M986.982422,539.480225 
	C985.299133,536.442139 984.265625,536.231934 979.190674,538.236511 
	C981.098206,538.797791 982.549072,539.224731 985.813171,540.185181 
	C983.224304,541.932434 981.595215,543.912170 980.298462,543.714172 
	C977.978210,543.359985 974.335388,542.039917 973.985779,540.500977 
	C973.345398,537.682190 973.666199,533.472351 975.436646,531.523010 
	C979.108704,527.479797 982.637146,531.094116 986.228210,533.379395 
	C985.462708,531.373901 984.420654,529.570435 982.859192,528.716431 
	C978.819946,526.507263 973.292664,528.498169 971.328857,532.515991 
	C968.991211,537.298645 970.588196,542.817810 974.944946,545.013062 
	C980.247742,547.684998 985.884949,545.491089 986.982422,539.480225 
M1028.806519,545.842590 
	C1030.263916,544.068970 1033.187500,541.894104 1032.837402,540.615356 
	C1032.304321,538.667480 1029.536621,537.300293 1027.645386,535.776367 
	C1027.160522,535.385803 1026.268433,535.491638 1025.799683,535.092163 
	C1024.613037,534.081299 1023.560547,532.912964 1022.454346,531.807739 
	C1024.241699,531.304565 1026.073120,530.301514 1027.802856,530.453491 
	C1029.233887,530.579224 1030.545044,532.068909 1032.748169,533.498657 
	C1031.451660,528.106262 1028.099487,527.389160 1024.876465,528.192200 
	C1022.926758,528.677917 1020.355774,530.841370 1019.991028,532.641479 
	C1019.252563,536.286377 1022.845154,536.871521 1025.490234,537.787781 
	C1025.802368,537.895874 1026.183350,537.859436 1026.454956,538.020447 
	C1027.819214,538.829529 1029.248047,539.579468 1030.421509,540.614075 
	C1030.631836,540.799561 1029.870850,542.862366 1029.350708,542.960693 
	C1027.520630,543.306702 1025.474487,543.600220 1023.752991,543.091675 
	C1022.324829,542.669861 1021.238892,541.089539 1020.001343,540.022400 
	C1020.348083,545.490784 1023.800720,546.323975 1028.806519,545.842590 
M1001.585144,544.092712 
	C1002.443787,544.592529 1003.245239,545.286743 1004.170837,545.558594 
	C1008.240723,546.754211 1011.933350,546.007507 1014.276672,542.310364 
	C1016.740723,538.422729 1016.587219,534.249329 1013.510986,530.729004 
	C1010.827820,527.658325 1007.229126,527.070312 1003.497498,528.757324 
	C999.202759,530.698914 998.003418,534.390503 998.757935,538.695129 
	C999.057190,540.402527 1000.239197,541.955261 1001.585144,544.092712 
M933.049377,544.707336 
	C934.292542,545.141663 935.507202,545.817200 936.783875,545.968262 
	C942.127197,546.600220 946.102478,543.077454 946.398865,537.610291 
	C946.711426,531.844788 942.975525,527.800964 937.493469,527.970825 
	C932.323730,528.131042 928.466431,532.376587 929.277466,537.718628 
	C929.623657,539.998291 931.341187,542.069763 933.049377,544.707336 
M915.036560,536.545593 
	C915.036621,537.542358 914.891541,538.565369 915.066345,539.530518 
	C915.451782,541.658447 915.580261,545.315063 916.557129,545.577148 
	C919.540955,546.377869 922.876526,545.867920 926.075256,545.867920 
	C926.063599,545.324585 926.051880,544.781189 926.040161,544.237854 
	C923.495728,544.030457 920.951233,543.823059 917.384705,543.532410 
	C917.384705,538.256897 917.384705,533.198914 917.384705,528.140869 
	C916.743713,528.147278 916.102722,528.153687 915.461670,528.160095 
	C915.319946,530.639954 915.178284,533.119873 915.036560,536.545593 
M991.877197,531.864441 
	C991.877197,536.458984 991.877197,541.053528 991.877197,545.648010 
	C992.427551,545.620544 992.977844,545.593079 993.528198,545.565613 
	C993.528198,539.844788 993.528198,534.123901 993.528198,528.403076 
	C993.190918,528.378784 992.853638,528.354492 992.516357,528.330200 
	C992.307373,529.204346 992.098389,530.078491 991.877197,531.864441 
z"/>
<path fill="#F5F5DC" opacity="1.000000" stroke="none" 
	d="
M1062.000244,394.000000 
	C1062.000122,407.159454 1062.029907,419.818970 1061.991577,432.478302 
	C1061.951294,445.737488 1053.724487,453.982513 1040.447632,453.989502 
	C990.809326,454.015594 941.170959,454.015839 891.532654,453.989227 
	C878.267334,453.982117 870.021362,445.728180 870.010498,432.458679 
	C869.980225,395.479797 869.979858,358.500854 870.010742,321.521973 
	C870.021790,308.261871 878.275208,300.017456 891.552002,300.010498 
	C941.190369,299.984375 990.828674,299.984100 1040.467041,300.010742 
	C1053.732300,300.017853 1061.970093,308.272736 1061.989746,321.541016 
	C1062.025269,345.527313 1062.000122,369.513672 1062.000244,394.000000 
M1018.498779,408.000061 
	C978.679199,408.000763 938.859619,407.975647 899.040039,408.022156 
	C890.193909,408.032501 884.026184,413.888580 884.016724,421.983032 
	C884.007690,429.718811 889.928894,435.927216 898.006653,435.944519 
	C942.990845,436.041016 987.975525,436.039886 1032.959717,435.946014 
	C1041.047119,435.929108 1046.974365,429.750183 1046.983276,422.016663 
	C1046.992188,414.281158 1041.072021,408.288513 1032.992432,408.034088 
	C1028.498291,407.892548 1023.996277,408.003113 1018.498779,408.000061 
M890.805481,388.959625 
	C893.675659,389.639282 896.544250,390.902985 899.416321,390.911133 
	C943.534729,391.036469 987.653564,391.018188 1031.772339,390.981537 
	C1040.698608,390.974121 1046.858032,385.297211 1046.983276,377.221588 
	C1047.112061,368.929993 1040.874268,363.025269 1031.716064,363.017822 
	C987.597290,362.981995 943.478516,362.989716 899.359741,363.013367 
	C892.020752,363.017303 887.110046,366.232208 884.885925,372.265656 
	C882.690735,378.220642 884.458252,383.694885 890.805481,388.959625 
M1045.832642,326.028290 
	C1043.097900,320.553833 1038.650513,317.987457 1032.553223,317.990448 
	C987.890869,318.012329 943.228577,317.981323 898.566223,318.020203 
	C890.120361,318.027557 884.160095,323.561768 884.015747,331.244446 
	C883.867554,339.131226 889.921448,344.971161 898.555054,344.979065 
	C943.217407,345.019806 987.879822,345.033112 1032.542114,344.971741 
	C1043.115479,344.957214 1048.851196,337.089417 1045.832642,326.028290 
z"/>
<path fill="#F0FFFF" opacity="1.000000" stroke="none" 
	d="
M954.000000,697.000000 
	C936.355225,697.000000 919.210388,697.000671 902.065613,696.998718 
	C900.734070,696.998535 899.173950,697.416077 898.125305,696.866394 
	C896.599548,696.066650 895.442261,694.563782 894.127869,693.360657 
	C895.369690,692.256531 896.478394,690.906128 897.901367,690.137146 
	C898.809631,689.646362 900.182983,690.002197 901.347778,690.002136 
	C944.459412,689.999695 987.571106,690.000061 1030.682739,690.000122 
	C1031.015625,690.000122 1031.348633,689.997253 1031.681519,690.001709 
	C1034.344849,690.037048 1037.653809,689.652466 1037.758057,693.394287 
	C1037.863159,697.166260 1034.612183,696.993774 1031.901245,696.997192 
	C1027.406982,697.002930 1022.912720,696.999878 1018.418457,696.999878 
	C997.112305,697.000061 975.806152,697.000000 954.000000,697.000000 
z"/>
<path fill="#F4F5DC" opacity="1.000000" stroke="none" 
	d="
M462.001587,351.039734 
	C462.001526,386.514282 462.008911,421.495392 461.997833,456.476532 
	C461.993225,471.089142 454.079559,478.995178 439.451294,478.997925 
	C390.477692,479.007080 341.504120,479.007202 292.530518,478.997833 
	C277.912445,478.995026 270.006317,471.083313 270.002045,456.458344 
	C269.991455,420.144592 269.991241,383.830841 270.002167,347.517090 
	C270.006561,332.909332 277.923798,325.004883 292.555054,325.002045 
	C340.529175,324.992798 388.509003,325.418518 436.474365,324.770782 
	C453.287415,324.543732 463.659912,333.663971 462.001587,351.039734 
M386.500000,396.001160 
	C359.192688,396.002106 331.885223,395.946136 304.578186,396.030212 
	C292.559357,396.067230 284.168945,404.507599 284.020844,416.489990 
	C283.932373,423.648712 283.900818,430.811371 284.030975,437.968872 
	C284.238342,449.371460 292.634003,457.923584 304.038239,457.952484 
	C344.998932,458.056244 385.960144,458.054382 426.920837,457.954041 
	C438.339325,457.926086 446.748840,449.398926 446.968994,438.009766 
	C447.100891,431.185455 447.023315,424.356445 446.992249,417.529785 
	C446.931885,404.268524 438.728516,396.052063 425.463745,396.010468 
	C412.809265,395.970825 400.154602,396.001434 386.500000,396.001160 
M310.933807,364.550049 
	C310.441559,361.569427 308.381653,358.924438 309.750610,355.446320 
	C310.066345,354.644104 307.278320,351.777618 305.486084,351.197662 
	C303.144531,350.439941 300.372589,351.012085 297.623749,351.012085 
	C297.623749,357.319855 297.623749,362.995239 297.623749,369.203369 
	C302.491150,368.252045 307.835571,371.295349 310.933807,364.550049 
M352.598938,358.723877 
	C353.870087,356.920013 355.085693,353.659973 356.423676,353.608917 
	C359.404694,353.495209 362.446869,354.985291 365.242493,355.760376 
	C364.895386,352.319824 362.293579,350.480896 357.551147,350.994537 
	C352.260010,351.567596 349.054138,356.141968 349.964752,361.819336 
	C350.764008,366.802246 355.383606,369.856537 360.740814,368.944061 
	C365.766968,368.087982 366.956543,366.122162 365.887146,360.507263 
	C363.606781,360.507263 361.353638,360.507263 359.100494,360.507263 
	C359.075806,360.813049 359.051086,361.118835 359.026367,361.424622 
	C360.620117,361.848389 362.213898,362.272156 363.897339,362.719757 
	C363.602203,366.751251 360.905701,367.079193 358.197205,366.898773 
	C353.710205,366.599854 352.552185,363.472443 352.598938,358.723877 
M374.013550,364.274567 
	C372.421997,360.441528 372.070038,356.595917 375.843689,353.971436 
	C379.821899,351.204712 382.835052,353.853607 385.548767,357.258026 
	C385.765289,352.601074 383.573608,350.770966 378.802429,350.964508 
	C373.304169,351.187531 369.688354,355.490143 370.310883,361.068939 
	C370.928375,366.602325 375.808289,370.024506 381.481934,368.902893 
	C386.502838,367.910370 387.663177,365.805023 386.232849,360.431305 
	C384.039734,360.431305 381.885681,360.431305 379.718323,360.431305 
	C379.787628,361.064178 379.766327,361.334808 379.826935,361.354584 
	C381.194153,361.801025 382.570343,362.219940 383.930420,362.639587 
	C383.082550,367.615387 379.724976,368.391998 374.013550,364.274567 
M431.808899,353.269165 
	C428.933563,350.462280 425.523224,350.062286 422.236572,351.992493 
	C420.985748,352.727112 419.617279,355.945770 419.959808,356.267426 
	C421.972351,358.157288 424.557678,359.416656 426.781158,361.110138 
	C428.139587,362.144745 429.195618,363.576416 430.387451,364.829773 
	C428.502441,365.454498 426.492920,366.800690 424.767181,366.502808 
	C423.011169,366.199646 421.534698,364.277252 419.337982,362.610199 
	C419.525604,367.743011 422.421997,368.824371 425.915405,368.996735 
	C429.309509,369.164246 432.494354,368.351501 433.089294,364.409363 
	C433.685852,360.456818 430.675354,359.402161 427.567871,358.707184 
	C427.083771,358.598938 426.516571,358.506348 426.170593,358.200012 
	C424.912506,357.086243 423.732056,355.884827 422.522308,354.716461 
	C424.473083,354.332367 426.425659,353.674683 428.373810,353.687561 
	C429.256042,353.693359 430.129456,355.030884 431.006836,355.764282 
	C431.385223,355.139740 431.763611,354.515228 431.808899,353.269165 
M414.607056,355.118195 
	C413.547577,354.087952 412.633636,352.816559 411.401276,352.072723 
	C407.703156,349.840607 402.700256,350.925049 400.219666,354.299133 
	C397.587982,357.878815 398.032959,363.664459 401.174957,366.719818 
	C404.186462,369.648224 409.352539,369.975830 412.589874,367.192657 
	C416.213104,364.077698 416.551056,360.111816 414.607056,355.118195 
M334.457062,368.399475 
	C335.587463,368.608917 336.719299,369.004944 337.847992,368.996002 
	C343.216766,368.953552 346.639679,365.124359 346.413544,359.544708 
	C346.199219,354.256775 342.554382,350.779907 337.427094,350.972443 
	C332.450317,351.159271 328.475006,355.163116 329.316071,360.271973 
	C329.771942,363.040863 332.203308,365.484497 334.457062,368.399475 
M321.376709,366.918915 
	C318.365540,367.310547 317.710114,365.648865 317.782623,363.051270 
	C317.893402,359.082092 317.811676,355.107483 317.811676,351.135193 
	C317.116302,351.155884 316.420929,351.176544 315.725555,351.197235 
	C315.725555,357.031464 315.725555,362.865692 315.725555,368.355347 
	C319.368744,368.355347 322.721619,368.355347 326.074524,368.355347 
	C326.059906,368.000946 326.045319,367.646545 326.030701,367.292114 
	C324.760559,367.169281 323.490417,367.046478 321.376709,366.918915 
M394.169891,353.936798 
	C393.859558,353.031494 393.549255,352.126221 393.238922,351.220917 
	C393.042603,351.288055 392.846252,351.355225 392.649902,351.422363 
	C392.649902,357.142670 392.649902,362.862946 392.649902,368.583252 
	C393.161041,368.588562 393.672180,368.593872 394.183319,368.599213 
	C394.183319,364.018585 394.183319,359.437988 394.169891,353.936798 
z"/>
<path fill="#F5F5DC" opacity="1.000000" stroke="none" 
	d="
M293.115295,277.000732 
	C277.696808,276.915924 270.004181,269.129639 270.001434,254.059204 
	C269.994904,217.911072 269.992767,181.762955 270.002533,145.614822 
	C270.006500,130.948257 277.888977,123.006233 292.459808,123.003212 
	C341.601257,122.993034 390.742737,122.990349 439.884186,123.005272 
	C453.871704,123.009521 461.986023,131.063675 461.993622,144.959320 
	C462.013641,181.607193 462.011871,218.255051 461.994568,254.902924 
	C461.987976,268.875397 453.924774,276.988831 440.021942,276.993744 
	C391.213654,277.010986 342.405334,277.000641 293.115295,277.000732 
M304.549927,141.000122 
	C303.050354,141.000305 301.550781,140.993927 300.051239,141.001755 
	C290.335571,141.052460 284.032776,146.545441 284.016785,154.972412 
	C284.000763,163.416122 290.297150,168.981201 299.996094,168.991653 
	C322.489136,169.015869 344.982239,169.000015 367.475311,168.999771 
	C388.968689,168.999542 410.462097,168.984314 431.955475,169.006393 
	C438.421539,169.013031 443.272003,166.378250 445.865112,160.354813 
	C450.043976,150.648026 442.910980,141.028214 431.496704,141.017212 
	C389.509705,140.976700 347.522583,141.000519 304.549927,141.000122 
M311.502075,186.000122 
	C306.837097,186.007904 302.165802,185.864929 297.508606,186.059219 
	C290.728333,186.342072 285.424347,191.037857 284.207520,197.529007 
	C282.548126,206.380707 289.262177,213.948761 299.039917,213.975586 
	C323.697876,214.043228 348.356140,213.999664 373.014282,213.999710 
	C392.674164,213.999756 412.334076,214.029007 431.993866,213.981277 
	C438.980011,213.964325 443.861267,210.709915 446.072388,204.860062 
	C449.727753,195.189255 442.693817,186.027420 431.460052,186.016327 
	C391.807129,185.977158 352.154144,186.000488 311.502075,186.000122 
M421.494598,259.000000 
	C425.658356,258.994659 429.830078,259.152618 433.984131,258.948975 
	C441.906158,258.560669 447.684357,251.885056 446.942169,244.218033 
	C446.242584,236.990601 440.462097,232.033020 432.418549,232.019302 
	C405.270996,231.973007 378.123260,232.000000 350.975616,232.000198 
	C333.321320,232.000320 315.666565,231.927658 298.012909,232.036041 
	C289.417877,232.088806 283.279388,238.744568 284.057892,246.782639 
	C284.773438,254.170746 290.617249,258.983795 299.081726,258.988708 
	C339.553375,259.012207 380.025055,258.999725 421.494598,259.000000 
z"/>
<path fill="#F0FFFF" opacity="1.000000" stroke="none" 
	d="
M375.000000,520.000000 
	C350.363983,520.000000 326.227997,520.000488 302.091980,519.998901 
	C300.760437,519.998779 299.204102,520.415405 298.150635,519.869507 
	C296.618439,519.075562 295.448608,517.582214 294.124268,516.387146 
	C295.524445,515.265564 296.826599,513.971619 298.366516,513.095703 
	C299.124237,512.664795 300.322083,513.000977 301.320740,513.000977 
	C344.432648,512.999878 387.544525,512.999939 430.656433,513.000427 
	C431.488678,513.000488 432.489716,512.709717 433.120483,513.067932 
	C434.790192,514.016113 436.299652,515.246399 437.872864,516.364502 
	C436.224243,517.574097 434.602234,519.787354 432.922760,519.831848 
	C421.279022,520.140259 409.623291,519.998291 397.971436,519.999817 
	C390.480957,520.000854 382.990479,520.000000 375.000000,520.000000 
z"/>
<path fill="#EBFAFF" opacity="1.000000" stroke="none" 
	d="
M363.686432,97.642174 
	C359.365570,95.706154 356.839935,92.456635 358.421051,88.430450 
	C359.441650,85.831551 362.644592,82.741684 365.160614,82.458527 
	C367.658173,82.177452 371.559326,84.484039 373.014954,86.803978 
	C376.474152,92.317070 371.523254,98.056763 363.686432,97.642174 
z"/>
<path fill="#7F8082" opacity="1.000000" stroke="none" 
	d="
M1027.610718,634.982605 
	C986.849243,634.994263 946.546326,635.006226 906.243347,634.993347 
	C891.994690,634.988831 884.030151,626.970764 884.003418,612.671631 
	C883.991577,606.343079 883.945679,600.013916 884.015625,593.686096 
	C884.149048,581.613281 892.438782,573.060303 904.388489,573.036377 
	C945.190857,572.954590 985.993713,572.948181 1026.796021,573.042236 
	C1038.473755,573.069153 1046.810303,581.630554 1046.978149,593.371155 
	C1047.073364,600.031433 1047.020142,606.694275 1046.993530,613.355835 
	C1046.943970,625.747253 1040.351562,633.261841 1027.610718,634.982605 
z"/>
<path fill="#8F8B8C" opacity="1.000000" stroke="none" 
	d="
M909.834717,534.177429 
	C909.805298,535.803223 909.521179,537.244385 910.017639,538.328003 
	C911.789612,542.195740 910.402466,545.366394 906.166443,545.897095 
	C903.440369,546.238647 900.636658,545.961182 897.531494,545.961182 
	C897.531494,539.917297 897.531494,534.365356 897.531494,528.849854 
	C905.745850,526.444275 909.202698,527.858459 909.834717,534.177429 
M906.692993,543.458801 
	C906.911621,542.019531 907.525879,539.404663 907.287231,539.324341 
	C905.105408,538.590210 902.775330,538.296570 900.259827,537.832092 
	C900.259827,540.315796 900.259827,541.886292 900.259827,543.782104 
	C902.353027,543.782104 904.136047,543.782104 906.692993,543.458801 
M901.681641,535.888550 
	C903.450256,535.388489 905.297119,535.049316 906.923767,534.257690 
	C907.264160,534.092041 907.086304,531.494629 906.644592,531.324768 
	C904.705750,530.579102 902.582397,530.313049 899.506287,529.655029 
	C900.123657,532.468872 900.479126,534.089172 901.681641,535.888550 
z"/>
<path fill="#8F898A" opacity="1.000000" stroke="none" 
	d="
M950.203613,534.098633 
	C952.910278,528.872681 956.745544,526.676453 961.134644,528.280579 
	C963.093201,528.996399 964.552734,531.077576 965.666931,533.305786 
	C962.207581,531.051636 958.787720,527.652527 955.181885,531.351929 
	C953.346008,533.235413 952.890564,537.429993 953.426819,540.275391 
	C953.719238,541.826904 957.294983,543.386047 959.565857,543.710510 
	C960.999084,543.915283 962.757324,541.846008 964.369812,540.796814 
	C964.122559,540.367188 963.875244,539.937561 963.627991,539.507935 
	C962.104614,539.188782 960.581238,538.869629 959.057861,538.550476 
	C959.054993,538.155579 959.052185,537.760681 959.049377,537.365784 
	C961.286926,537.208313 963.524536,537.050903 965.705078,536.897461 
	C967.033752,542.931885 966.108032,544.694458 961.347351,545.828735 
	C956.355347,547.018127 951.321167,544.442627 950.232849,539.884705 
	C949.821411,538.161499 950.124756,536.267578 950.203613,534.098633 
z"/>
<path fill="#908A8B" opacity="1.000000" stroke="none" 
	d="
M986.989746,539.901489 
	C985.884949,545.491089 980.247742,547.684998 974.944946,545.013062 
	C970.588196,542.817810 968.991211,537.298645 971.328857,532.515991 
	C973.292664,528.498169 978.819946,526.507263 982.859192,528.716431 
	C984.420654,529.570435 985.462708,531.373901 986.228210,533.379395 
	C982.637146,531.094116 979.108704,527.479797 975.436646,531.523010 
	C973.666199,533.472351 973.345398,537.682190 973.985779,540.500977 
	C974.335388,542.039917 977.978210,543.359985 980.298462,543.714172 
	C981.595215,543.912170 983.224304,541.932434 985.813171,540.185181 
	C982.549072,539.224731 981.098206,538.797791 979.190674,538.236511 
	C984.265625,536.231934 985.299133,536.442139 986.989746,539.901489 
z"/>
<path fill="#8C888A" opacity="1.000000" stroke="none" 
	d="
M1028.416382,545.909180 
	C1023.800720,546.323975 1020.348083,545.490784 1020.001343,540.022400 
	C1021.238892,541.089539 1022.324829,542.669861 1023.752991,543.091675 
	C1025.474487,543.600220 1027.520630,543.306702 1029.350708,542.960693 
	C1029.870850,542.862366 1030.631836,540.799561 1030.421509,540.614075 
	C1029.248047,539.579468 1027.819214,538.829529 1026.454956,538.020447 
	C1026.183350,537.859436 1025.802368,537.895874 1025.490234,537.787781 
	C1022.845154,536.871521 1019.252563,536.286377 1019.991028,532.641479 
	C1020.355774,530.841370 1022.926758,528.677917 1024.876465,528.192200 
	C1028.099487,527.389160 1031.451660,528.106262 1032.748169,533.498657 
	C1030.545044,532.068909 1029.233887,530.579224 1027.802856,530.453491 
	C1026.073120,530.301514 1024.241699,531.304565 1022.454346,531.807739 
	C1023.560547,532.912964 1024.613037,534.081299 1025.799683,535.092163 
	C1026.268433,535.491638 1027.160522,535.385803 1027.645386,535.776367 
	C1029.536621,537.300293 1032.304321,538.667480 1032.837402,540.615356 
	C1033.187500,541.894104 1030.263916,544.068970 1028.416382,545.909180 
z"/>
<path fill="#8E898B" opacity="1.000000" stroke="none" 
	d="
M1001.302185,543.835571 
	C1000.239197,541.955261 999.057190,540.402527 998.757935,538.695129 
	C998.003418,534.390503 999.202759,530.698914 1003.497498,528.757324 
	C1007.229126,527.070312 1010.827820,527.658325 1013.510986,530.729004 
	C1016.587219,534.249329 1016.740723,538.422729 1014.276672,542.310364 
	C1011.933350,546.007507 1008.240723,546.754211 1004.170837,545.558594 
	C1003.245239,545.286743 1002.443787,544.592529 1001.302185,543.835571 
M1005.849426,530.085571 
	C1000.877075,531.738647 1000.148010,535.789246 1001.724854,539.693726 
	C1002.510864,541.640076 1005.790894,543.620056 1008.019470,543.711365 
	C1011.846558,543.868164 1013.069763,540.562744 1013.048096,537.065186 
	C1013.021973,532.840149 1011.423645,529.960449 1005.849426,530.085571 
z"/>
<path fill="#8C898C" opacity="1.000000" stroke="none" 
	d="
M932.742432,544.471558 
	C931.341187,542.069763 929.623657,539.998291 929.277466,537.718628 
	C928.466431,532.376587 932.323730,528.131042 937.493469,527.970825 
	C942.975525,527.800964 946.711426,531.844788 946.398865,537.610291 
	C946.102478,543.077454 942.127197,546.600220 936.783875,545.968262 
	C935.507202,545.817200 934.292542,545.141663 932.742432,544.471558 
M935.244568,543.517273 
	C938.939270,544.678833 942.480652,543.990295 943.132019,540.014954 
	C943.595886,537.184265 942.530884,533.573303 940.886597,531.175720 
	C940.184509,530.151855 935.526184,530.424622 933.970215,531.699951 
	C930.795837,534.301941 931.291809,538.182617 933.163269,541.689697 
	C933.458862,542.243591 934.089233,542.618835 935.244568,543.517273 
z"/>
<path fill="#938F93" opacity="1.000000" stroke="none" 
	d="
M915.036560,536.072632 
	C915.178284,533.119873 915.319946,530.639954 915.461670,528.160095 
	C916.102722,528.153687 916.743713,528.147278 917.384705,528.140869 
	C917.384705,533.198914 917.384705,538.256897 917.384705,543.532410 
	C920.951233,543.823059 923.495728,544.030457 926.040161,544.237854 
	C926.051880,544.781189 926.063599,545.324585 926.075256,545.867920 
	C922.876526,545.867920 919.540955,546.377869 916.557129,545.577148 
	C915.580261,545.315063 915.451782,541.658447 915.066345,539.530518 
	C914.891541,538.565369 915.036621,537.542358 915.036560,536.072632 
z"/>
<path fill="#888088" opacity="1.000000" stroke="none" 
	d="
M991.883301,531.408569 
	C992.098389,530.078491 992.307373,529.204346 992.516357,528.330200 
	C992.853638,528.354492 993.190918,528.378784 993.528198,528.403076 
	C993.528198,534.123901 993.528198,539.844788 993.528198,545.565613 
	C992.977844,545.593079 992.427551,545.620544 991.877197,545.648010 
	C991.877197,541.053528 991.877197,536.458984 991.883301,531.408569 
z"/>
<path fill="#7F8082" opacity="1.000000" stroke="none" 
	d="
M1018.998291,408.000061 
	C1023.996277,408.003113 1028.498291,407.892548 1032.992432,408.034088 
	C1041.072021,408.288513 1046.992188,414.281158 1046.983276,422.016663 
	C1046.974365,429.750183 1041.047119,435.929108 1032.959717,435.946014 
	C987.975525,436.039886 942.990845,436.041016 898.006653,435.944519 
	C889.928894,435.927216 884.007690,429.718811 884.016724,421.983032 
	C884.026184,413.888580 890.193909,408.032501 899.040039,408.022156 
	C938.859619,407.975647 978.679199,408.000763 1018.998291,408.000061 
z"/>
<path fill="#7F8082" opacity="1.000000" stroke="none" 
	d="
M890.477600,388.763824 
	C884.458252,383.694885 882.690735,378.220642 884.885925,372.265656 
	C887.110046,366.232208 892.020752,363.017303 899.359741,363.013367 
	C943.478516,362.989716 987.597290,362.981995 1031.716064,363.017822 
	C1040.874268,363.025269 1047.112061,368.929993 1046.983276,377.221588 
	C1046.858032,385.297211 1040.698608,390.974121 1031.772339,390.981537 
	C987.653564,391.018188 943.534729,391.036469 899.416321,390.911133 
	C896.544250,390.902985 893.675659,389.639282 890.477600,388.763824 
z"/>
<path fill="#7F8082" opacity="1.000000" stroke="none" 
	d="
M1045.960815,326.398346 
	C1048.851196,337.089417 1043.115479,344.957214 1032.542114,344.971741 
	C987.879822,345.033112 943.217407,345.019806 898.555054,344.979065 
	C889.921448,344.971161 883.867554,339.131226 884.015747,331.244446 
	C884.160095,323.561768 890.120361,318.027557 898.566223,318.020203 
	C943.228577,317.981323 987.890869,318.012329 1032.553223,317.990448 
	C1038.650513,317.987457 1043.097900,320.553833 1045.960815,326.398346 
z"/>
<path fill="#7F8082" opacity="1.000000" stroke="none" 
	d="
M387.000000,396.001160 
	C400.154602,396.001434 412.809265,395.970825 425.463745,396.010468 
	C438.728516,396.052063 446.931885,404.268524 446.992249,417.529785 
	C447.023315,424.356445 447.100891,431.185455 446.968994,438.009766 
	C446.748840,449.398926 438.339325,457.926086 426.920837,457.954041 
	C385.960144,458.054382 344.998932,458.056244 304.038239,457.952484 
	C292.634003,457.923584 284.238342,449.371460 284.030975,437.968872 
	C283.900818,430.811371 283.932373,423.648712 284.020844,416.489990 
	C284.168945,404.507599 292.559357,396.067230 304.578186,396.030212 
	C331.885223,395.946136 359.192688,396.002106 387.000000,396.001160 
z"/>
<path fill="#8F8B8C" opacity="1.000000" stroke="none" 
	d="
M310.862366,364.923584 
	C307.835571,371.295349 302.491150,368.252045 297.623749,369.203369 
	C297.623749,362.995239 297.623749,357.319855 297.623749,351.012085 
	C300.372589,351.012085 303.144531,350.439941 305.486084,351.197662 
	C307.278320,351.777618 310.066345,354.644104 309.750610,355.446320 
	C308.381653,358.924438 310.441559,361.569427 310.862366,364.923584 
M300.007263,362.712585 
	C299.435028,365.911987 300.693665,367.703857 303.960480,366.827972 
	C305.485992,366.418945 306.690277,364.811859 308.040161,363.747803 
	C306.179443,362.855743 304.361969,361.844360 302.431427,361.145081 
	C301.859497,360.937866 300.969055,361.609924 300.007263,362.712585 
M299.941650,355.572021 
	C300.883423,356.692902 301.762024,358.654755 302.782227,358.731415 
	C304.202515,358.838043 305.848511,357.689514 307.119995,356.715454 
	C307.413391,356.490692 306.557465,353.909912 306.268158,353.917175 
	C304.174133,353.969635 302.089783,354.408203 299.941650,355.572021 
z"/>
<path fill="#8F898A" opacity="1.000000" stroke="none" 
	d="
M352.571228,359.151367 
	C352.552185,363.472443 353.710205,366.599854 358.197205,366.898773 
	C360.905701,367.079193 363.602203,366.751251 363.897339,362.719757 
	C362.213898,362.272156 360.620117,361.848389 359.026367,361.424622 
	C359.051086,361.118835 359.075806,360.813049 359.100494,360.507263 
	C361.353638,360.507263 363.606781,360.507263 365.887146,360.507263 
	C366.956543,366.122162 365.766968,368.087982 360.740814,368.944061 
	C355.383606,369.856537 350.764008,366.802246 349.964752,361.819336 
	C349.054138,356.141968 352.260010,351.567596 357.551147,350.994537 
	C362.293579,350.480896 364.895386,352.319824 365.242493,355.760376 
	C362.446869,354.985291 359.404694,353.495209 356.423676,353.608917 
	C355.085693,353.659973 353.870087,356.920013 352.571228,359.151367 
z"/>
<path fill="#908A8B" opacity="1.000000" stroke="none" 
	d="
M374.241608,364.606781 
	C379.724976,368.391998 383.082550,367.615387 383.930420,362.639587 
	C382.570343,362.219940 381.194153,361.801025 379.826935,361.354584 
	C379.766327,361.334808 379.787628,361.064178 379.718323,360.431305 
	C381.885681,360.431305 384.039734,360.431305 386.232849,360.431305 
	C387.663177,365.805023 386.502838,367.910370 381.481934,368.902893 
	C375.808289,370.024506 370.928375,366.602325 370.310883,361.068939 
	C369.688354,355.490143 373.304169,351.187531 378.802429,350.964508 
	C383.573608,350.770966 385.765289,352.601074 385.548767,357.258026 
	C382.835052,353.853607 379.821899,351.204712 375.843689,353.971436 
	C372.070038,356.595917 372.421997,360.441528 374.241608,364.606781 
z"/>
<path fill="#8C888A" opacity="1.000000" stroke="none" 
	d="
M431.975464,353.579956 
	C431.763611,354.515228 431.385223,355.139740 431.006836,355.764282 
	C430.129456,355.030884 429.256042,353.693359 428.373810,353.687561 
	C426.425659,353.674683 424.473083,354.332367 422.522308,354.716461 
	C423.732056,355.884827 424.912506,357.086243 426.170593,358.200012 
	C426.516571,358.506348 427.083771,358.598938 427.567871,358.707184 
	C430.675354,359.402161 433.685852,360.456818 433.089294,364.409363 
	C432.494354,368.351501 429.309509,369.164246 425.915405,368.996735 
	C422.421997,368.824371 419.525604,367.743011 419.337982,362.610199 
	C421.534698,364.277252 423.011169,366.199646 424.767181,366.502808 
	C426.492920,366.800690 428.502441,365.454498 430.387451,364.829773 
	C429.195618,363.576416 428.139587,362.144745 426.781158,361.110138 
	C424.557678,359.416656 421.972351,358.157288 419.959808,356.267426 
	C419.617279,355.945770 420.985748,352.727112 422.236572,351.992493 
	C425.523224,350.062286 428.933563,350.462280 431.975464,353.579956 
z"/>
<path fill="#8E898B" opacity="1.000000" stroke="none" 
	d="
M414.776978,355.472046 
	C416.551056,360.111816 416.213104,364.077698 412.589874,367.192657 
	C409.352539,369.975830 404.186462,369.648224 401.174957,366.719818 
	C398.032959,363.664459 397.587982,357.878815 400.219666,354.299133 
	C402.700256,350.925049 407.703156,349.840607 411.401276,352.072723 
	C412.633636,352.816559 413.547577,354.087952 414.776978,355.472046 
M403.075378,365.463257 
	C406.011383,367.674683 409.666443,368.135101 411.282135,364.920685 
	C412.610596,362.277710 412.361694,358.276489 411.413208,355.327057 
	C411.022797,354.113007 406.638794,353.070679 404.652100,353.721954 
	C400.910278,354.948578 400.784882,358.701141 401.346375,362.158813 
	C401.499481,363.101807 402.133728,363.966675 403.075378,365.463257 
z"/>
<path fill="#8C898C" opacity="1.000000" stroke="none" 
	d="
M334.100311,368.237152 
	C332.203308,365.484497 329.771942,363.040863 329.316071,360.271973 
	C328.475006,355.163116 332.450317,351.159271 337.427094,350.972443 
	C342.554382,350.779907 346.199219,354.256775 346.413544,359.544708 
	C346.639679,365.124359 343.216766,368.953552 337.847992,368.996002 
	C336.719299,369.004944 335.587463,368.608917 334.100311,368.237152 
M343.701172,361.969757 
	C343.535004,360.173248 343.743408,358.235382 343.129272,356.607880 
	C341.569000,352.472748 336.172272,351.667938 333.362640,354.967224 
	C330.981812,357.762939 331.486481,363.732208 334.284149,365.867218 
	C337.479401,368.305725 340.861481,367.155731 343.701172,361.969757 
z"/>
<path fill="#938F93" opacity="1.000000" stroke="none" 
	d="
M321.798492,366.921265 
	C323.490417,367.046478 324.760559,367.169281 326.030701,367.292114 
	C326.045319,367.646545 326.059906,368.000946 326.074524,368.355347 
	C322.721619,368.355347 319.368744,368.355347 315.725555,368.355347 
	C315.725555,362.865692 315.725555,357.031464 315.725555,351.197235 
	C316.420929,351.176544 317.116302,351.155884 317.811676,351.135193 
	C317.811676,355.107483 317.893402,359.082092 317.782623,363.051270 
	C317.710114,365.648865 318.365540,367.310547 321.798492,366.921265 
z"/>
<path fill="#888088" opacity="1.000000" stroke="none" 
	d="
M394.176605,354.397095 
	C394.183319,359.437988 394.183319,364.018585 394.183319,368.599213 
	C393.672180,368.593872 393.161041,368.588562 392.649902,368.583252 
	C392.649902,362.862946 392.649902,357.142670 392.649902,351.422363 
	C392.846252,351.355225 393.042603,351.288055 393.238922,351.220917 
	C393.549255,352.126221 393.859558,353.031494 394.176605,354.397095 
z"/>
<path fill="#7F8082" opacity="1.000000" stroke="none" 
	d="
M305.042725,141.000122 
	C347.522583,141.000519 389.509705,140.976700 431.496704,141.017212 
	C442.910980,141.028214 450.043976,150.648026 445.865112,160.354813 
	C443.272003,166.378250 438.421539,169.013031 431.955475,169.006393 
	C410.462097,168.984314 388.968689,168.999542 367.475311,168.999771 
	C344.982239,169.000015 322.489136,169.015869 299.996094,168.991653 
	C290.297150,168.981201 284.000763,163.416122 284.016785,154.972412 
	C284.032776,146.545441 290.335571,141.052460 300.051239,141.001755 
	C301.550781,140.993927 303.050354,141.000305 305.042725,141.000122 
z"/>
<path fill="#7F8082" opacity="1.000000" stroke="none" 
	d="
M312.001648,186.000122 
	C352.154144,186.000488 391.807129,185.977158 431.460052,186.016327 
	C442.693817,186.027420 449.727753,195.189255 446.072388,204.860062 
	C443.861267,210.709915 438.980011,213.964325 431.993866,213.981277 
	C412.334076,214.029007 392.674164,213.999756 373.014282,213.999710 
	C348.356140,213.999664 323.697876,214.043228 299.039917,213.975586 
	C289.262177,213.948761 282.548126,206.380707 284.207520,197.529007 
	C285.424347,191.037857 290.728333,186.342072 297.508606,186.059219 
	C302.165802,185.864929 306.837097,186.007904 312.001648,186.000122 
z"/>
<path fill="#7F8082" opacity="1.000000" stroke="none" 
	d="
M420.995667,259.000000 
	C380.025055,258.999725 339.553375,259.012207 299.081726,258.988708 
	C290.617249,258.983795 284.773438,254.170746 284.057892,246.782639 
	C283.279388,238.744568 289.417877,232.088806 298.012909,232.036041 
	C315.666565,231.927658 333.321320,232.000320 350.975616,232.000198 
	C378.123260,232.000000 405.270996,231.973007 432.418549,232.019302 
	C440.462097,232.033020 446.242584,236.990601 446.942169,244.218033 
	C447.684357,251.885056 441.906158,258.560669 433.984131,258.948975 
	C429.830078,259.152618 425.658356,258.994659 420.995667,259.000000 
z"/>
<path fill="#F5F3D8" opacity="1.000000" stroke="none" 
	d="
M906.306030,543.620483 
	C904.136047,543.782104 902.353027,543.782104 900.259827,543.782104 
	C900.259827,541.886292 900.259827,540.315796 900.259827,537.832092 
	C902.775330,538.296570 905.105408,538.590210 907.287231,539.324341 
	C907.525879,539.404663 906.911621,542.019531 906.306030,543.620483 
z"/>
<path fill="#F5F2D8" opacity="1.000000" stroke="none" 
	d="
M901.258118,535.798950 
	C900.479126,534.089172 900.123657,532.468872 899.506287,529.655029 
	C902.582397,530.313049 904.705750,530.579102 906.644592,531.324768 
	C907.086304,531.494629 907.264160,534.092041 906.923767,534.257690 
	C905.297119,535.049316 903.450256,535.388489 901.258118,535.798950 
z"/>
<path fill="#F1F2D9" opacity="1.000000" stroke="none" 
	d="
M1006.243713,530.057739 
	C1011.423645,529.960449 1013.021973,532.840149 1013.048096,537.065186 
	C1013.069763,540.562744 1011.846558,543.868164 1008.019470,543.711365 
	C1005.790894,543.620056 1002.510864,541.640076 1001.724854,539.693726 
	C1000.148010,535.789246 1000.877075,531.738647 1006.243713,530.057739 
z"/>
<path fill="#F3F1D7" opacity="1.000000" stroke="none" 
	d="
M934.904663,543.296997 
	C934.089233,542.618835 933.458862,542.243591 933.163269,541.689697 
	C931.291809,538.182617 930.795837,534.301941 933.970215,531.699951 
	C935.526184,530.424622 940.184509,530.151855 940.886597,531.175720 
	C942.530884,533.573303 943.595886,537.184265 943.132019,540.014954 
	C942.480652,543.990295 938.939270,544.678833 934.904663,543.296997 
z"/>
<path fill="#F5F3D8" opacity="1.000000" stroke="none" 
	d="
M300.115906,362.295837 
	C300.969055,361.609924 301.859497,360.937866 302.431427,361.145081 
	C304.361969,361.844360 306.179443,362.855743 308.040161,363.747803 
	C306.690277,364.811859 305.485992,366.418945 303.960480,366.827972 
	C300.693665,367.703857 299.435028,365.911987 300.115906,362.295837 
z"/>
<path fill="#F5F2D8" opacity="1.000000" stroke="none" 
	d="
M299.971985,355.148254 
	C302.089783,354.408203 304.174133,353.969635 306.268158,353.917175 
	C306.557465,353.909912 307.413391,356.490692 307.119995,356.715454 
	C305.848511,357.689514 304.202515,358.838043 302.782227,358.731415 
	C301.762024,358.654755 300.883423,356.692902 299.971985,355.148254 
z"/>
<path fill="#F1F2D9" opacity="1.000000" stroke="none" 
	d="
M402.811279,365.165344 
	C402.133728,363.966675 401.499481,363.101807 401.346375,362.158813 
	C400.784882,358.701141 400.910278,354.948578 404.652100,353.721954 
	C406.638794,353.070679 411.022797,354.113007 411.413208,355.327057 
	C412.361694,358.276489 412.610596,362.277710 411.282135,364.920685 
	C409.666443,368.135101 406.011383,367.674683 402.811279,365.165344 
z"/>
<path fill="#F3F1D7" opacity="1.000000" stroke="none" 
	d="
M343.595520,362.353394 
	C340.861481,367.155731 337.479401,368.305725 334.284149,365.867218 
	C331.486481,363.732208 330.981812,357.762939 333.362640,354.967224 
	C336.172272,351.667938 341.569000,352.472748 343.129272,356.607880 
	C343.743408,358.235382 343.535004,360.173248 343.595520,362.353394 
z"/>
</svg>