<?xml version="1.0" encoding="UTF-8" standalone="no" ?>
<!DOCTYPE svg PUBLIC "-//W3C//DTD SVG 1.1//EN" "http://www.w3.org/Graphics/SVG/1.1/DTD/svg11.dtd">
<svg xmlns="http://www.w3.org/2000/svg" version="1.1" width="640" height="480" viewBox="0 0 640 480"
     xml:space="preserve">
<desc>Created with Fabric.js 3.6.6</desc>
<defs>
</defs>
<g transform="matrix(1.08 0 0 1.08 318.36 201.34)"  >
<g style=""   >
		<g transform="matrix(0.59 0 0 0.59 0.68 72.83)"  >
<path style="stroke: none; stroke-width: 1; stroke-dasharray: none; stroke-linecap: butt; stroke-dashoffset: 0; stroke-linejoin: miter; stroke-miterlimit: 4; fill: rgb(144,168,254); fill-rule: nonzero; opacity: 1;"  transform=" translate(-502.01, -440.96)" d="M 902 633 C 635.638611 633 369.277283 633 102.46254 632.534973 C 102.009872 506.843658 102.009727 381.61734 102.017242 256.391052 C 102.017395 253.895004 102.107254 251.398956 102.612831 248.924896 C 104.736313 248.966583 106.402222 249.003555 108.068123 249.003571 C 370.663086 249.005829 633.258057 249.005646 895.853027 249.000778 C 897.851807 249.000748 899.850647 248.93515 901.897034 249.369995 C 901.960205 251.837814 901.989319 253.8358 901.98938 255.833786 C 901.994446 381.555847 901.997131 507.277924 902 633 z" stroke-linecap="round" />
</g>
		<g transform="matrix(0.59 0 0 0.59 0 -0.3)"  >
<path style="stroke: none; stroke-width: 0; stroke-dasharray: none; stroke-linecap: butt; stroke-dashoffset: 0; stroke-linejoin: miter; stroke-miterlimit: 4; fill: rgb(47,92,254); fill-rule: nonzero; opacity: 1;"  transform=" translate(-501.38, -317.52)" d="M 101 633 C 68.312439 633 35.624878 633 2.469185 632.542053 C 2.001386 431.768646 2.002684 231.453171 1.992257 31.137711 C 1.99211 28.311703 1.844836 25.485703 1.763986 22.476959 C 1.761743 22.294218 1.959325 21.986715 2.205945 21.737604 C 2.583255 20.586826 2.713944 19.68516 2.87289 18.426731 C 6.984195 8.358081 14.55434 3.377539 25.229218 2.044736 C 26.371017 2.137684 27.037226 2.161092 27.703436 2.161094 C 342.737823 2.161983 657.772217 2.161552 972.80658 2.152691 C 974.301575 2.152649 975.796509 2.032569 977.640991 2.057789 C 988.618469 2.515423 995.986511 7.933964 1001 17 C 1001 222.333344 1001 427.666687 1001 633 C 968.564331 633 936.250854 633 903.47113 632.534973 C 903.003967 504.380524 903.00293 376.691071 903.018677 248.533051 C 903.042725 223.326263 903.075989 198.587997 903.005737 173.850052 C 903.000427 171.971786 902.260681 170.095612 901.652588 167.93219 C 897.333496 157.057404 891.337463 153.000595 879.701904 153.000381 C 628.331116 152.99588 376.960297 153.033157 125.589607 152.875092 C 113.877975 152.867722 106.158058 157.282303 101.837814 168.476959 C 101.351906 170.220078 100.978729 171.682281 100.977615 173.14476 C 100.95826 198.429398 100.984688 223.714096 100.997772 249.463852 C 100.996292 377.619293 100.998146 505.309662 101 633 z" stroke-linecap="round" />
</g>
		<g transform="matrix(0.59 0 0 0.59 236.95 72.83)"  >
<path style="stroke: none; stroke-width: 1; stroke-dasharray: none; stroke-linecap: butt; stroke-dashoffset: 0; stroke-linejoin: miter; stroke-miterlimit: 4; fill: rgb(55,94,225); fill-rule: nonzero; opacity: 1;"  transform=" translate(-902.48, -440.97)" d="M 903.001953 249.001648 C 903.00293 376.691071 903.003967 504.380524 903.002441 632.534973 C 903 633 902.5 633 902.25 633 C 901.997131 507.277924 901.994446 381.555847 901.98938 255.833786 C 901.989319 253.8358 901.960205 251.837814 901.957642 249.337372 C 901.970703 248.8349 902.047729 248.948792 902.286072 248.965912 C 902.524414 248.983017 903.001953 249.001648 903.001953 249.001648 z" stroke-linecap="round" />
</g>
		<g transform="matrix(0.59 0 0 0.59 -235.56 72.81)"  >
<path style="stroke: none; stroke-width: 1; stroke-dasharray: none; stroke-linecap: butt; stroke-dashoffset: 0; stroke-linejoin: miter; stroke-miterlimit: 4; fill: rgb(55,93,228); fill-rule: nonzero; opacity: 1;"  transform=" translate(-101.61, -440.94)" d="M 101.25 633 C 100.998146 505.309662 100.996292 377.619293 101.237244 249.457123 C 101.480057 248.985321 101.958138 248.952942 101.996017 248.895508 C 102.03389 248.838058 102.155258 248.902908 102.155258 248.902908 C 102.107254 251.398956 102.017395 253.895004 102.017242 256.391052 C 102.009727 381.61734 102.009872 506.843658 102.004593 632.534973 C 102 633 101.5 633 101.25 633 z" stroke-linecap="round" />
</g>
		<g transform="matrix(0.59 0 0 0.59 0.69 -68.79)"  >
<path style="stroke: none; stroke-width: 1; stroke-dasharray: none; stroke-linecap: butt; stroke-dashoffset: 0; stroke-linejoin: miter; stroke-miterlimit: 4; fill: rgb(245,245,245); fill-rule: nonzero; opacity: 1;"  transform=" translate(-502.04, -200.94)" d="M 102.123703 168.196152 C 106.158058 157.282303 113.877975 152.867722 125.589607 152.875092 C 376.960297 153.033157 628.331116 152.99588 879.701904 153.000381 C 891.337463 153.000595 897.333496 157.057404 901.622681 168.377594 C 901.884338 195.722427 901.966003 222.335617 902.047729 248.948792 C 902.047729 248.948792 901.970703 248.8349 901.910034 248.867523 C 899.850647 248.93515 897.851807 249.000748 895.853027 249.000778 C 633.258057 249.005646 370.663086 249.005829 108.068123 249.003571 C 106.402222 249.003555 104.736313 248.966583 102.612839 248.924896 C 102.155258 248.902908 102.03389 248.838058 102.025513 248.433594 C 102.05265 221.418121 102.088173 194.807144 102.123703 168.196152 M 757.5 172.00145 C 691.697449 172.00145 625.894897 172.001297 560.092346 172.001511 C 524.608887 172.001633 489.125305 171.946854 453.64212 172.03862 C 443.734589 172.06424 436.130798 176.274445 431.115265 185.131195 C 427.521667 191.476929 427.935638 198.267776 428.018768 205.072174 C 428.1875 218.882095 439.044678 229.958786 452.790558 229.964066 C 583.562866 230.014206 714.335144 230.005707 845.107483 229.973099 C 855.99176 229.970383 865.336121 223.380234 868.435791 212.943985 C 869.776062 208.431793 869.891785 203.450333 869.931519 198.676773 C 870.065674 182.556015 859.505066 172.020142 843.460388 172.007553 C 815.140259 171.985321 786.820129 172.001404 757.5 172.00145 M 183.843643 179.606888 C 176.698883 174.70784 168.522659 177.35228 167.116867 185.016846 C 166.273727 189.613861 168.302109 193.929367 172.220352 195.874695 C 176.527863 198.01329 181.433456 197.162628 184.510452 193.7435 C 187.917633 189.957474 187.875626 185.323074 183.843643 179.606888 M 212.518768 177.607452 C 205.005051 174.397583 196.820877 182.149948 199.471191 189.967987 C 201.014099 194.519379 204.35524 197.044891 209.232422 196.950165 C 213.882431 196.859879 216.996918 194.324509 218.529297 190.000259 C 220.137695 185.461472 218.31015 181.460403 212.518768 177.607452 M 144.409241 196.996124 C 149.014328 196.602905 152.730484 194.306824 153.364594 189.82576 C 153.797562 186.766083 152.860855 182.845688 151.102524 180.30098 C 148.540634 176.593353 144.182571 175.938156 139.934692 177.916794 C 135.761185 179.860779 133.724365 183.298828 134.058319 187.917114 C 134.412018 192.808472 137.631149 195.784302 144.409241 196.996124 z" stroke-linecap="round" />
</g>
		<g transform="matrix(0.59 0 0 0.59 236.92 -64.14)"  >
<path style="stroke: none; stroke-width: 1; stroke-dasharray: none; stroke-linecap: butt; stroke-dashoffset: 0; stroke-linejoin: miter; stroke-miterlimit: 4; fill: rgb(66,94,195); fill-rule: nonzero; opacity: 1;"  transform=" translate(-902.44, -208.82)" d="M 902.286072 248.965912 C 901.966003 222.335617 901.884338 195.722427 901.83252 168.663849 C 902.260681 170.095612 903.000427 171.971786 903.005737 173.850052 C 903.075989 198.587997 903.042725 223.326263 903.018677 248.533051 C 903.001953 249.001648 902.524414 248.983017 902.286072 248.965912 z" stroke-linecap="round" />
</g>
		<g transform="matrix(0.59 0 0 0.59 -235.62 -64.18)"  >
<path style="stroke: none; stroke-width: 1; stroke-dasharray: none; stroke-linecap: butt; stroke-dashoffset: 0; stroke-linejoin: miter; stroke-miterlimit: 4; fill: rgb(66,94,195); fill-rule: nonzero; opacity: 1;"  transform=" translate(-101.5, -208.73)" d="M 101.837814 168.476959 C 102.088173 194.807144 102.05265 221.418121 101.987633 248.491028 C 101.958138 248.952942 101.480057 248.985321 101.240585 248.992035 C 100.984688 223.714096 100.95826 198.429398 100.977615 173.14476 C 100.978729 171.682281 101.351906 170.220078 101.837814 168.476959 z" stroke-linecap="round" />
</g>
		<g transform="matrix(0.59 0 0 0.59 87.37 -68.75)"  >
<path style="stroke: none; stroke-width: 1; stroke-dasharray: none; stroke-linecap: butt; stroke-dashoffset: 0; stroke-linejoin: miter; stroke-miterlimit: 4; fill: rgb(196,196,196); fill-rule: nonzero; opacity: 1;"  transform=" translate(-648.95, -200.99)" d="M 758 172.001465 C 786.820129 172.001404 815.140259 171.985321 843.460388 172.007553 C 859.505066 172.020142 870.065674 182.556015 869.931519 198.676773 C 869.891785 203.450333 869.776062 208.431793 868.435791 212.943985 C 865.336121 223.380234 855.99176 229.970383 845.107483 229.973099 C 714.335144 230.005707 583.562866 230.014206 452.790558 229.964066 C 439.044678 229.958786 428.1875 218.882095 428.018768 205.072174 C 427.935638 198.267776 427.521667 191.476929 431.115265 185.131195 C 436.130798 176.274445 443.734589 172.06424 453.64212 172.03862 C 489.125305 171.946854 524.608887 172.001633 560.092346 172.001511 C 625.894897 172.001297 691.697449 172.00145 758 172.001465 z" stroke-linecap="round" />
</g>
		<g transform="matrix(0.59 0 0 0.59 -191.1 -76.94)"  >
<path style="stroke: none; stroke-width: 1; stroke-dasharray: none; stroke-linecap: butt; stroke-dashoffset: 0; stroke-linejoin: miter; stroke-miterlimit: 4; fill: rgb(238,219,100); fill-rule: nonzero; opacity: 1;"  transform=" translate(-176.97, -187.12)" d="M 184.115479 179.881958 C 187.875626 185.323074 187.917633 189.957474 184.510452 193.7435 C 181.433456 197.162628 176.527863 198.01329 172.220352 195.874695 C 168.302109 193.929367 166.273727 189.613861 167.116867 185.016846 C 168.522659 177.35228 176.698883 174.70784 184.115479 179.881958 z" stroke-linecap="round" />
</g>
		<g transform="matrix(0.59 0 0 0.59 -172.19 -77.04)"  >
<path style="stroke: none; stroke-width: 1; stroke-dasharray: none; stroke-linecap: butt; stroke-dashoffset: 0; stroke-linejoin: miter; stroke-miterlimit: 4; fill: rgb(95,174,108); fill-rule: nonzero; opacity: 1;"  transform=" translate(-209.03, -186.96)" d="M 212.876907 177.766769 C 218.31015 181.460403 220.137695 185.461472 218.529297 190.000259 C 216.996918 194.324509 213.882431 196.859879 209.232422 196.950165 C 204.35524 197.044891 201.014099 194.519379 199.471191 189.967987 C 196.820877 182.149948 205.005051 174.397583 212.876907 177.766769 z" stroke-linecap="round" />
</g>
		<g transform="matrix(0.59 0 0 0.59 -210.7 -77.06)"  >
<path style="stroke: none; stroke-width: 1; stroke-dasharray: none; stroke-linecap: butt; stroke-dashoffset: 0; stroke-linejoin: miter; stroke-miterlimit: 4; fill: rgb(234,97,98); fill-rule: nonzero; opacity: 1;"  transform=" translate(-143.75, -186.91)" d="M 144.003281 197.002045 C 137.631149 195.784302 134.412018 192.808472 134.058319 187.917114 C 133.724365 183.298828 135.761185 179.860779 139.934692 177.916794 C 144.182571 175.938156 148.540634 176.593353 151.102524 180.30098 C 152.860855 182.845688 153.797562 186.766083 153.364594 189.82576 C 152.730484 194.306824 149.014328 196.602905 144.003281 197.002045 z" stroke-linecap="round" />
</g>
</g>
</g>
<g transform="matrix(1 0 0 1 217.38 459.9)"  >
<line style="stroke: rgb(0,0,0); stroke-width: 2; stroke-dasharray: none; stroke-linecap: butt; stroke-dashoffset: 0; stroke-linejoin: miter; stroke-miterlimit: 4; fill: rgb(0,0,0); fill-rule: nonzero; opacity: 1;"  x1="0" y1="0" x2="0" y2="0" />
</g>
<g transform="matrix(1 0 0 1 237.38 339.9)"  >
<line style="stroke: rgb(0,0,0); stroke-width: 2; stroke-dasharray: none; stroke-linecap: butt; stroke-dashoffset: 0; stroke-linejoin: miter; stroke-miterlimit: 4; fill: rgb(0,0,0); fill-rule: nonzero; opacity: 1;"  x1="0" y1="0" x2="0" y2="0" />
</g>
</svg>